<?xml version="1.0" encoding="UTF-8"?>
<svg xmlns="http://www.w3.org/2000/svg" xmlns:xlink="http://www.w3.org/1999/xlink" width="24px" height="25px" viewBox="0 0 24 24" version="1.1">
<g id="surface1">
<path style=" stroke:none;fill-rule:nonzero;fill:rgb(0%,0%,0%);fill-opacity:1;" d="M 4.019531 0.046875 C 4.042969 0.0703125 4.015625 0.207031 3.953125 0.351562 C 3.703125 0.929688 3.847656 1.363281 4.695312 2.597656 C 5.128906 3.226562 5.191406 3.480469 4.921875 3.480469 C 4.5 3.480469 3.113281 4.390625 2.5625 5.03125 C 0.625 7.285156 1.089844 10.550781 3.605469 12.332031 C 4.070312 12.667969 4.078125 12.722656 3.730469 13.203125 C 2.769531 14.511719 2.714844 15.148438 3.507812 15.953125 C 4.023438 16.476562 3.976562 16.46875 6.628906 16.46875 L 9.023438 16.46875 L 9.402344 16.214844 C 9.691406 16.023438 10.027344 15.628906 10.738281 14.648438 C 11.261719 13.929688 11.777344 13.253906 11.882812 13.144531 L 12.078125 12.953125 L 12.269531 13.144531 C 12.371094 13.253906 12.738281 13.734375 13.085938 14.226562 C 14.035156 15.582031 14.390625 16 14.789062 16.246094 L 15.152344 16.46875 L 17.621094 16.46875 C 20.324219 16.46875 20.304688 16.472656 20.773438 15.992188 C 21.523438 15.21875 21.523438 14.601562 20.765625 13.515625 C 20.40625 13 20.40625 12.984375 20.820312 12.675781 C 22.125 11.703125 22.71875 10 22.238281 8.609375 C 22.144531 8.328125 22.148438 8.238281 22.265625 7.886719 C 22.882812 6.035156 21.207031 3.480469 19.375 3.480469 C 19.054688 3.480469 19.089844 3.269531 19.507812 2.71875 C 20.355469 1.585938 20.535156 1.050781 20.316406 0.289062 L 20.230469 0 L 16.777344 0 L 13.320312 0.00390625 L 13.109375 0.367188 C 12.800781 0.910156 12.175781 1.699219 12.058594 1.699219 C 11.9375 1.699219 11.128906 0.644531 10.960938 0.269531 L 10.839844 0 L 7.40625 0 C 5.519531 0 3.996094 0.0195312 4.019531 0.046875 Z M 9.863281 0.246094 C 9.980469 0.367188 10.753906 1.425781 11.320312 2.242188 C 11.539062 2.5625 11.738281 2.835938 11.761719 2.859375 C 11.785156 2.878906 11.871094 3 11.953125 3.125 L 12.101562 3.351562 L 12.222656 3.125 C 12.289062 3 12.363281 2.878906 12.390625 2.859375 C 12.421875 2.835938 12.476562 2.765625 12.519531 2.691406 C 12.644531 2.484375 13.382812 1.433594 13.4375 1.390625 C 13.460938 1.367188 13.625 1.144531 13.796875 0.890625 C 14.351562 0.078125 14.070312 0.148438 16.8125 0.148438 C 19.511719 0.148438 19.53125 0.152344 19.648438 0.738281 C 19.699219 1.011719 19.496094 1.53125 19.308594 1.601562 C 19.246094 1.625 19.199219 1.671875 19.199219 1.707031 C 19.199219 1.792969 18.628906 2.578125 18.539062 2.617188 C 18.507812 2.628906 18.480469 2.691406 18.480469 2.753906 C 18.480469 2.8125 18.453125 2.859375 18.421875 2.859375 C 18.382812 2.859375 18.269531 3 18.160156 3.171875 C 18.050781 3.339844 17.9375 3.480469 17.898438 3.480469 C 17.867188 3.480469 17.839844 3.523438 17.839844 3.578125 C 17.839844 3.875 17.375 4.175781 16.925781 4.175781 C 16.375 4.175781 16.367188 4.234375 17.039062 3.335938 C 17.347656 2.925781 17.652344 2.519531 17.710938 2.4375 C 17.777344 2.351562 18.03125 2.003906 18.285156 1.667969 C 18.851562 0.894531 18.886719 0.808594 18.632812 0.878906 C 18.527344 0.90625 17.597656 0.929688 16.558594 0.929688 L 14.679688 0.933594 L 13.398438 2.785156 C 12.695312 3.804688 12.097656 4.640625 12.066406 4.640625 C 12.039062 4.640625 11.800781 4.316406 11.53125 3.925781 C 11.269531 3.53125 10.695312 2.703125 10.261719 2.085938 L 9.472656 0.964844 L 7.515625 0.929688 C 6.441406 0.90625 5.542969 0.898438 5.527344 0.910156 C 5.511719 0.917969 5.640625 1.125 5.8125 1.371094 C 6.910156 2.914062 7.261719 3.398438 7.472656 3.691406 C 7.757812 4.082031 7.761719 4.074219 7.175781 4.035156 C 6.730469 4.007812 6.695312 3.988281 6.476562 3.683594 C 6.347656 3.507812 6.214844 3.328125 6.179688 3.285156 C 6.148438 3.242188 5.945312 2.945312 5.722656 2.628906 C 5.507812 2.308594 5.308594 2.03125 5.285156 2.011719 C 4.707031 1.511719 4.527344 0.65625 4.929688 0.316406 L 5.160156 0.117188 L 7.460938 0.132812 C 9.234375 0.144531 9.785156 0.171875 9.863281 0.246094 Z M 9.066406 2.015625 C 9.179688 2.097656 9.683594 2.753906 10.1875 3.464844 C 11.992188 6.019531 12.160156 6.015625 13.988281 3.402344 C 15.074219 1.847656 15.058594 1.859375 16.097656 1.855469 C 17.046875 1.855469 17.050781 1.863281 16.554688 2.574219 C 16.023438 3.335938 15.941406 3.398438 15.386719 3.476562 C 14.042969 3.664062 13.179688 4.980469 13.691406 6.0625 C 13.769531 6.226562 13.746094 6.332031 13.570312 6.730469 C 13.257812 7.429688 13.320312 7.652344 14.160156 8.777344 C 14.742188 9.558594 14.746094 9.445312 14.125 10.070312 C 13.5625 10.640625 13.496094 10.652344 13.203125 10.238281 C 12.996094 9.941406 12.457031 9.492188 12.210938 9.40625 C 11.96875 9.320312 11.539062 9.578125 11.042969 10.109375 C 10.550781 10.640625 10.453125 10.667969 10.371094 10.289062 C 10.34375 10.15625 10.179688 9.902344 10.003906 9.714844 C 9.605469 9.296875 9.605469 9.3125 10.03125 8.722656 C 10.773438 7.6875 10.871094 7.261719 10.519531 6.660156 C 10.335938 6.351562 10.320312 6.246094 10.320312 5.363281 C 10.320312 4.25 10.253906 4.03125 9.773438 3.613281 C 9.414062 3.300781 9.421875 3.304688 8.878906 3.320312 C 8.679688 3.328125 8.425781 3.300781 8.316406 3.257812 C 8.09375 3.179688 7.253906 2.042969 7.324219 1.925781 C 7.425781 1.769531 8.84375 1.84375 9.066406 2.015625 Z M 9.519531 5.175781 L 9.519531 6.175781 L 7.578125 6.199219 C 5.402344 6.226562 5.386719 6.230469 4.804688 6.820312 C 4.386719 7.238281 4.296875 7.214844 6.28125 7.199219 L 8.003906 7.179688 L 7.984375 8.171875 L 7.960938 9.164062 L 6.261719 9.183594 C 5.324219 9.191406 4.558594 9.226562 4.558594 9.257812 C 4.5625 9.359375 4.832031 9.632812 5.121094 9.835938 C 5.632812 10.1875 6.003906 10.234375 7.882812 10.175781 L 9.601562 10.117188 L 9.601562 12.140625 L 7.535156 12.140625 C 4.632812 12.140625 4.148438 11.972656 2.953125 10.539062 C 1.601562 8.921875 2.160156 5.980469 4.039062 4.832031 C 4.910156 4.300781 5.332031 4.242188 8.699219 4.1875 L 9.519531 4.175781 Z M 19.675781 4.457031 C 21.382812 4.917969 22.164062 6.867188 21.183594 8.210938 C 21.105469 8.316406 21.117188 8.371094 21.230469 8.496094 C 21.929688 9.238281 21.65625 10.796875 20.679688 11.664062 C 19.992188 12.265625 19.851562 12.292969 17.242188 12.292969 C 14.394531 12.292969 14.285156 12.242188 14.421875 11.082031 C 14.5 10.402344 14.484375 10.410156 17.0625 10.320312 C 19.550781 10.238281 19.519531 10.246094 19.519531 9.824219 C 19.519531 9.367188 19.402344 9.320312 18.207031 9.292969 C 16.6875 9.257812 16.453125 9.121094 16.453125 8.242188 C 16.453125 7.464844 16.675781 7.34375 18.132812 7.34375 C 19.425781 7.34375 19.519531 7.308594 19.519531 6.800781 C 19.519531 6.351562 19.460938 6.339844 17.203125 6.339844 C 14.632812 6.339844 14.398438 6.257812 14.398438 5.378906 C 14.402344 4.882812 14.53125 4.632812 14.867188 4.480469 C 15.257812 4.304688 19.039062 4.289062 19.675781 4.457031 Z M 9.722656 6.863281 L 10.046875 7.304688 L 9.410156 8.195312 C 8.179688 9.917969 8.214844 9.878906 7.707031 9.910156 C 7.203125 9.9375 7.175781 9.929688 7.285156 9.738281 C 7.425781 9.484375 7.609375 9.355469 7.839844 9.355469 C 8.128906 9.355469 8.195312 9.253906 8.203125 8.804688 C 8.210938 8.523438 8.269531 8.375 8.46875 8.132812 C 8.605469 7.964844 8.71875 7.785156 8.71875 7.738281 C 8.71875 7.691406 8.753906 7.65625 8.789062 7.65625 C 8.972656 7.65625 9.03125 7.277344 8.875 7.085938 C 8.792969 6.980469 8.71875 6.863281 8.71875 6.820312 C 8.71875 6.78125 8.667969 6.703125 8.601562 6.648438 C 8.382812 6.476562 8.472656 6.417969 8.941406 6.421875 L 9.398438 6.421875 Z M 15.199219 6.550781 C 15.617188 6.621094 15.621094 6.632812 15.359375 6.984375 L 15.109375 7.324219 L 15.699219 8.085938 C 16.023438 8.507812 16.359375 8.964844 16.445312 9.105469 C 16.527344 9.242188 16.625 9.355469 16.65625 9.355469 C 16.691406 9.355469 16.71875 9.390625 16.71875 9.429688 C 16.71875 9.46875 16.8125 9.59375 16.921875 9.710938 C 17.207031 10.011719 17.175781 10.050781 16.648438 10.050781 L 16.175781 10.050781 L 15.167969 8.71875 C 14.613281 7.984375 14.160156 7.347656 14.160156 7.308594 C 14.164062 7.121094 14.765625 6.421875 14.878906 6.46875 C 14.949219 6.496094 15.09375 6.53125 15.199219 6.550781 Z M 12.492188 10.613281 C 12.886719 11.199219 13.347656 11.847656 14.515625 13.453125 C 14.898438 13.984375 15.277344 14.515625 15.347656 14.632812 L 15.480469 14.84375 L 17.621094 14.84375 C 18.796875 14.84375 19.761719 14.824219 19.761719 14.800781 C 19.761719 14.777344 19.636719 14.609375 19.488281 14.433594 C 19.339844 14.257812 18.945312 13.753906 18.609375 13.316406 L 18 12.527344 L 19.027344 12.527344 L 19.453125 13.085938 C 20.683594 14.703125 20.769531 14.898438 20.390625 15.316406 L 20.226562 15.503906 L 17.703125 15.527344 C 14.789062 15.554688 15.101562 15.632812 14.410156 14.65625 C 14.199219 14.355469 13.765625 13.742188 13.441406 13.300781 C 13.121094 12.851562 12.695312 12.257812 12.496094 11.984375 C 12.300781 11.707031 12.109375 11.480469 12.070312 11.480469 C 12.015625 11.480469 11.4375 12.269531 9.878906 14.457031 C 9.625 14.816406 9.324219 15.210938 9.210938 15.328125 L 9.011719 15.542969 L 6.644531 15.542969 C 3.054688 15.542969 3.042969 15.519531 5.074219 12.742188 L 5.394531 12.308594 L 5.835938 12.351562 C 6.078125 12.375 6.292969 12.402344 6.304688 12.414062 C 6.328125 12.433594 5.21875 13.941406 4.792969 14.472656 C 4.664062 14.628906 4.558594 14.78125 4.558594 14.804688 C 4.558594 14.910156 8.703125 14.84375 8.746094 14.734375 C 8.773438 14.675781 9.164062 14.105469 9.625 13.476562 C 10.964844 11.632812 11.4375 10.96875 11.746094 10.496094 C 12.105469 9.953125 12.042969 9.941406 12.492188 10.613281 Z M 8.71875 13.230469 C 8.71875 13.28125 8.578125 13.453125 8.40625 13.617188 L 8.101562 13.917969 L 7.246094 13.917969 C 6.277344 13.917969 6.199219 13.851562 6.65625 13.398438 L 6.910156 13.144531 L 7.816406 13.144531 C 8.429688 13.144531 8.71875 13.171875 8.71875 13.230469 Z M 17.628906 13.457031 C 18.117188 13.828125 17.945312 13.933594 16.871094 13.90625 C 15.890625 13.878906 15.519531 13.730469 15.519531 13.371094 C 15.519531 13.210938 17.398438 13.289062 17.628906 13.457031 Z M 17.628906 13.457031 "/>
<path style=" stroke:none;fill-rule:nonzero;fill:rgb(0%,0%,0%);fill-opacity:1;" d="M 20.132812 17.914062 C 20.09375 17.953125 19.207031 17.988281 17.800781 18.003906 C 17.710938 18.003906 16.613281 17.988281 15.351562 17.96875 C 13.515625 17.941406 13.015625 17.957031 12.800781 18.042969 C 12.574219 18.136719 12.476562 18.136719 12.128906 18.046875 C 11.558594 17.898438 10.160156 17.902344 9.957031 18.050781 C 9.867188 18.117188 9.710938 18.167969 9.601562 18.167969 C 9.492188 18.167969 9.332031 18.117188 9.242188 18.050781 C 8.921875 17.8125 7.4375 17.894531 7.078125 18.171875 C 6.710938 18.453125 6.757812 18.453125 6.199219 18.171875 C 5.53125 17.828125 4.546875 17.828125 3.878906 18.171875 C 3.324219 18.453125 3.367188 18.453125 3 18.171875 C 2.703125 17.941406 2.675781 17.9375 1.8125 17.9375 L 0.929688 17.9375 L 0.464844 18.398438 L 0 18.863281 L 0 23.96875 L 22.957031 23.96875 L 23.097656 23.71875 C 23.199219 23.523438 23.242188 23.199219 23.277344 22.34375 C 23.324219 21.183594 23.53125 20.488281 23.882812 20.363281 C 23.976562 20.328125 24 20.113281 24 19.261719 L 24 18.195312 L 23.714844 18.070312 C 23.382812 17.914062 22.425781 17.890625 22.03125 18.03125 C 21.835938 18.097656 21.695312 18.101562 21.464844 18.035156 C 21.09375 17.925781 20.199219 17.84375 20.132812 17.914062 Z M 2.71875 18.886719 C 2.761719 18.980469 2.976562 20.027344 3.199219 21.207031 C 3.679688 23.722656 3.695312 23.601562 2.847656 23.566406 L 2.28125 23.542969 L 2.1875 23.15625 C 2.136719 22.945312 2.070312 22.640625 2.042969 22.480469 C 2 22.222656 1.699219 22.03125 1.671875 22.25 C 1.667969 22.28125 1.609375 22.585938 1.53125 22.925781 L 1.398438 23.542969 L 0.78125 23.566406 C 0.257812 23.585938 0.148438 23.566406 0.105469 23.457031 C 0.0429688 23.304688 0.863281 18.949219 0.980469 18.808594 C 1.140625 18.613281 2.628906 18.679688 2.71875 18.886719 Z M 5.835938 18.847656 C 6.234375 19.042969 6.421875 19.332031 6.464844 19.828125 C 6.511719 20.40625 6.429688 20.488281 5.808594 20.488281 C 5.257812 20.488281 5.121094 20.410156 5.121094 20.085938 C 5.121094 19.96875 5.085938 19.871094 5.039062 19.871094 C 4.988281 19.871094 4.960938 20.347656 4.960938 21.148438 C 4.960938 22.332031 5.03125 22.742188 5.148438 22.1875 L 5.195312 21.949219 L 5.820312 21.972656 L 6.441406 21.996094 L 6.441406 22.488281 C 6.4375 22.964844 6.429688 22.988281 6.105469 23.28125 L 5.769531 23.582031 L 5.0625 23.582031 C 3.703125 23.582031 3.601562 23.414062 3.601562 21.164062 C 3.601562 19.003906 3.773438 18.710938 5.039062 18.710938 C 5.375 18.710938 5.65625 18.757812 5.835938 18.847656 Z M 9.101562 18.808594 C 9.144531 18.863281 9.355469 19.824219 9.566406 20.953125 L 9.960938 23.003906 L 9.980469 20.960938 C 10.007812 18.503906 9.921875 18.6875 11.042969 18.722656 C 12.023438 18.757812 12.425781 18.933594 12.714844 19.464844 L 12.871094 19.753906 L 12.875 19.324219 C 12.878906 18.714844 12.890625 18.710938 14.246094 18.710938 C 15.617188 18.710938 15.621094 18.710938 15.585938 19.378906 L 15.558594 19.832031 L 14.238281 19.878906 L 14.238281 20.105469 C 14.238281 20.335938 14.238281 20.335938 14.714844 20.335938 C 15.28125 20.335938 15.359375 20.421875 15.359375 21.011719 C 15.359375 21.496094 15.269531 21.570312 14.703125 21.570312 L 14.238281 21.570312 L 14.238281 22.421875 L 14.824219 22.421875 C 15.144531 22.421875 15.449219 22.460938 15.496094 22.507812 C 15.617188 22.625 15.644531 22.445312 15.808594 20.605469 C 15.984375 18.582031 15.925781 18.710938 16.714844 18.710938 C 17.460938 18.710938 17.457031 18.710938 17.613281 19.515625 C 17.71875 20.082031 17.765625 20.0625 17.914062 19.367188 C 18.054688 18.726562 18.078125 18.710938 18.804688 18.710938 C 19.578125 18.710938 19.484375 18.460938 19.730469 21.09375 C 19.984375 23.761719 20.019531 23.582031 19.238281 23.582031 L 18.636719 23.582031 L 18.585938 23.332031 L 18.53125 23.078125 L 18.464844 23.332031 L 18.394531 23.582031 L 17.757812 23.582031 C 17.167969 23.582031 17.109375 23.566406 17.046875 23.414062 L 16.984375 23.238281 L 16.886719 23.414062 C 16.78125 23.609375 15.800781 23.667969 15.617188 23.488281 C 15.539062 23.417969 15.519531 23.417969 15.519531 23.488281 C 15.519531 23.5625 15.203125 23.582031 14.21875 23.5625 L 12.921875 23.542969 L 12.871094 23.078125 C 12.847656 22.824219 12.820312 22.660156 12.8125 22.707031 C 12.792969 22.859375 12.316406 23.347656 12.070312 23.46875 C 11.890625 23.558594 11.519531 23.578125 10.265625 23.5625 L 8.679688 23.542969 L 8.546875 22.925781 C 8.472656 22.585938 8.410156 22.28125 8.40625 22.25 C 8.402344 22.21875 8.332031 22.191406 8.246094 22.191406 C 8.125 22.191406 8.078125 22.289062 7.996094 22.710938 C 7.828125 23.605469 7.84375 23.582031 7.210938 23.582031 C 6.382812 23.582031 6.402344 23.703125 6.875 21.207031 C 7.398438 18.449219 7.261719 18.710938 8.226562 18.710938 C 8.769531 18.710938 9.042969 18.742188 9.101562 18.808594 Z M 21.496094 19.136719 C 21.617188 19.367188 21.734375 19.5625 21.761719 19.5625 C 21.785156 19.5625 21.902344 19.367188 22.023438 19.136719 L 22.238281 18.710938 L 22.871094 18.710938 C 23.742188 18.710938 23.746094 18.742188 23.042969 20.09375 L 22.480469 21.183594 L 22.480469 22.210938 C 22.476562 23.648438 22.511719 23.582031 21.761719 23.582031 C 21 23.582031 21.039062 23.65625 21.039062 22.261719 L 21.039062 21.183594 L 20.476562 20.09375 C 19.773438 18.742188 19.777344 18.710938 20.648438 18.710938 L 21.28125 18.710938 Z M 21.496094 19.136719 "/>
<path style=" stroke:none;fill-rule:nonzero;fill:rgb(0%,0%,0%);fill-opacity:1;" d="M 1.160156 19.117188 C 1.132812 19.257812 0.941406 20.253906 0.726562 21.339844 C 0.296875 23.566406 0.296875 23.429688 0.757812 23.429688 C 1.15625 23.429688 1.148438 23.4375 1.289062 22.625 L 1.390625 22.027344 L 2.273438 22.074219 L 2.394531 22.730469 L 2.519531 23.390625 L 2.898438 23.414062 C 3.371094 23.441406 3.375 23.65625 2.875 21.078125 C 2.390625 18.601562 2.519531 18.867188 1.800781 18.867188 L 1.207031 18.867188 Z M 1.953125 20.355469 C 1.980469 20.535156 2.023438 20.796875 2.050781 20.933594 C 2.097656 21.179688 2.09375 21.1875 1.816406 21.1875 L 1.535156 21.1875 L 1.605469 20.894531 C 1.640625 20.738281 1.691406 20.472656 1.71875 20.316406 C 1.785156 19.929688 1.886719 19.949219 1.953125 20.355469 Z M 1.953125 20.355469 "/>
<path style=" stroke:none;fill-rule:nonzero;fill:rgb(0%,0%,0%);fill-opacity:1;" d="M 4.640625 18.914062 C 3.910156 19.171875 3.839844 19.371094 3.839844 21.164062 C 3.839844 22.8125 3.902344 23.054688 4.398438 23.292969 C 5.226562 23.691406 6.175781 23.257812 6.191406 22.472656 L 6.199219 22.152344 L 5.820312 22.128906 C 5.445312 22.105469 5.441406 22.105469 5.441406 22.339844 C 5.441406 22.574219 5.433594 22.578125 5.039062 22.578125 L 4.636719 22.578125 L 4.660156 21.167969 L 4.679688 19.753906 L 5.039062 19.753906 C 5.386719 19.753906 5.398438 19.761719 5.425781 20.011719 C 5.464844 20.402344 6.183594 20.367188 6.222656 19.972656 C 6.296875 19.265625 5.375 18.648438 4.640625 18.914062 Z M 4.640625 18.914062 "/>
<path style=" stroke:none;fill-rule:nonzero;fill:rgb(0%,0%,0%);fill-opacity:1;" d="M 7.652344 18.925781 C 7.605469 18.996094 6.800781 23.144531 6.800781 23.316406 C 6.800781 23.414062 6.875 23.433594 7.179688 23.414062 L 7.558594 23.390625 L 7.660156 22.886719 C 7.84375 21.964844 7.792969 22.035156 8.273438 22.035156 L 8.699219 22.035156 L 8.796875 22.632812 C 8.933594 23.4375 8.925781 23.429688 9.324219 23.429688 C 9.789062 23.429688 9.789062 23.554688 9.363281 21.378906 C 9.15625 20.316406 8.960938 19.3125 8.929688 19.15625 L 8.871094 18.867188 L 8.28125 18.867188 C 7.957031 18.867188 7.671875 18.894531 7.652344 18.925781 Z M 8.363281 20.316406 C 8.390625 20.472656 8.445312 20.738281 8.480469 20.894531 L 8.542969 21.1875 L 8.265625 21.1875 C 7.988281 21.1875 7.984375 21.179688 8.027344 20.933594 C 8.054688 20.796875 8.101562 20.535156 8.128906 20.355469 C 8.191406 19.949219 8.296875 19.933594 8.363281 20.316406 Z M 8.363281 20.316406 "/>
<path style=" stroke:none;fill-rule:nonzero;fill:rgb(0%,0%,0%);fill-opacity:1;" d="M 10.277344 18.960938 C 10.257812 19.015625 10.246094 20.035156 10.261719 21.222656 L 10.28125 23.390625 L 11 23.390625 C 12.382812 23.386719 12.640625 23.046875 12.640625 21.191406 C 12.640625 19.625 12.4375 19.144531 11.683594 18.941406 C 11.265625 18.832031 10.324219 18.84375 10.277344 18.960938 Z M 11.714844 19.886719 C 11.816406 20.027344 11.839844 20.292969 11.839844 21.179688 C 11.839844 22.4375 11.789062 22.578125 11.308594 22.578125 L 11.039062 22.578125 L 11.039062 19.714844 L 11.316406 19.714844 C 11.507812 19.714844 11.628906 19.765625 11.714844 19.886719 Z M 11.714844 19.886719 "/>
<path style=" stroke:none;fill-rule:nonzero;fill:rgb(0%,0%,0%);fill-opacity:1;" d="M 11.359375 21.1875 C 11.359375 21.996094 11.386719 22.414062 11.441406 22.382812 C 11.488281 22.355469 11.519531 21.871094 11.519531 21.1875 C 11.519531 20.5 11.488281 20.015625 11.441406 19.988281 C 11.386719 19.957031 11.359375 20.375 11.359375 21.1875 Z M 11.359375 21.1875 "/>
<path style=" stroke:none;fill-rule:nonzero;fill:rgb(0%,0%,0%);fill-opacity:1;" d="M 13.199219 21.148438 L 13.199219 23.429688 L 15.28125 23.429688 L 15.28125 22.578125 L 14 22.578125 L 14 21.417969 L 15.039062 21.417969 L 15.039062 20.566406 L 14 20.566406 L 14 19.714844 L 15.28125 19.714844 L 15.28125 18.867188 L 13.199219 18.867188 Z M 13.199219 21.148438 "/>
<path style=" stroke:none;fill-rule:nonzero;fill:rgb(0%,0%,0%);fill-opacity:1;" d="M 16.28125 18.960938 C 16.261719 19.015625 16.171875 19.824219 16.078125 20.761719 C 15.988281 21.695312 15.890625 22.679688 15.863281 22.945312 L 15.816406 23.429688 L 16.621094 23.429688 L 16.667969 23.066406 C 16.695312 22.871094 16.71875 22.5625 16.71875 22.382812 C 16.71875 21.9375 16.808594 21.339844 16.875 21.339844 C 16.90625 21.339844 17.011719 21.78125 17.113281 22.320312 C 17.207031 22.859375 17.308594 23.332031 17.328125 23.367188 C 17.410156 23.496094 18.148438 23.4375 18.191406 23.292969 C 18.238281 23.140625 18.558594 21.429688 18.558594 21.328125 C 18.558594 21.289062 18.59375 21.261719 18.628906 21.261719 C 18.667969 21.261719 18.722656 21.671875 18.757812 22.171875 C 18.832031 23.441406 18.828125 23.429688 19.242188 23.429688 C 19.4375 23.429688 19.605469 23.402344 19.625 23.371094 C 19.648438 23.328125 19.242188 18.988281 19.207031 18.886719 C 19.167969 18.78125 18.324219 18.886719 18.292969 19 C 18.222656 19.222656 17.9375 20.652344 17.875 21.050781 C 17.8125 21.492188 17.714844 21.523438 17.648438 21.128906 C 17.621094 20.96875 17.5 20.394531 17.382812 19.851562 L 17.175781 18.867188 L 16.742188 18.867188 C 16.472656 18.867188 16.304688 18.902344 16.28125 18.960938 Z M 16.28125 18.960938 "/>
<path style=" stroke:none;fill-rule:nonzero;fill:rgb(0%,0%,0%);fill-opacity:1;" d="M 20.238281 18.9375 C 20.238281 18.976562 20.492188 19.480469 20.800781 20.050781 L 21.359375 21.082031 L 21.359375 23.429688 L 22.160156 23.429688 L 22.160156 21.183594 L 22.71875 20.101562 C 23.386719 18.816406 23.378906 18.867188 22.878906 18.867188 L 22.480469 18.867188 L 22.140625 19.523438 C 21.734375 20.316406 21.792969 20.316406 21.390625 19.539062 L 21.058594 18.90625 L 20.652344 18.882812 C 20.410156 18.867188 20.238281 18.890625 20.238281 18.9375 Z M 20.238281 18.9375 "/>
</g>
</svg>
