<?xml version="1.0" encoding="UTF-8"?>
<svg xmlns="http://www.w3.org/2000/svg" xmlns:xlink="http://www.w3.org/1999/xlink" width="24px" height="24px" viewBox="0 0 24 24" version="1.1">
<g id="surface1">
<path style=" stroke:none;fill-rule:nonzero;fill:rgb(0%,0%,0%);fill-opacity:1;" d="M 8.5625 14.996094 C 8.195312 14.46875 7.914062 13.859375 7.746094 13.191406 C 7.710938 13.050781 7.679688 12.910156 7.652344 12.769531 L 5.816406 12.992188 C 5.796875 13.457031 5.675781 13.925781 5.445312 14.355469 L 5.425781 14.390625 C 5.027344 15.121094 4.378906 15.609375 3.660156 15.8125 C 2.953125 16.011719 2.175781 15.929688 1.484375 15.523438 L 1.453125 15.507812 C 0.757812 15.085938 0.292969 14.40625 0.0976562 13.652344 C -0.0898438 12.910156 -0.0117188 12.09375 0.375 11.371094 L 0.390625 11.339844 C 0.792969 10.609375 1.4375 10.117188 2.15625 9.917969 C 2.863281 9.71875 3.644531 9.796875 4.332031 10.203125 L 4.363281 10.222656 C 5 10.609375 5.445312 11.210938 5.664062 11.890625 L 7.5625 11.65625 L 7.566406 11.65625 C 7.585938 10.722656 7.835938 9.820312 8.269531 9.03125 L 8.269531 9.027344 C 8.539062 8.539062 8.878906 8.089844 9.28125 7.707031 L 8.152344 5.9375 C 7.882812 6.066406 7.597656 6.148438 7.300781 6.191406 C 6.492188 6.300781 5.714844 6.054688 5.117188 5.570312 C 4.515625 5.085938 4.09375 4.359375 3.988281 3.507812 L 3.988281 3.503906 C 3.882812 2.65625 4.117188 1.84375 4.578125 1.214844 C 5.039062 0.585938 5.730469 0.140625 6.542969 0.03125 C 7.355469 -0.0820312 8.128906 0.164062 8.730469 0.648438 C 9.328125 1.132812 9.753906 1.859375 9.859375 2.710938 C 9.964844 3.5625 9.730469 4.375 9.269531 5.007812 C 9.230469 5.058594 9.1875 5.109375 9.148438 5.160156 L 10.289062 6.953125 C 10.648438 6.75 11.035156 6.585938 11.445312 6.46875 C 12.757812 6.101562 14.089844 6.292969 15.207031 6.902344 L 15.796875 5.996094 C 15.382812 5.519531 15.109375 4.898438 15.054688 4.203125 C 14.988281 3.363281 15.253906 2.574219 15.734375 1.980469 C 16.214844 1.382812 16.914062 0.980469 17.714844 0.910156 C 18.515625 0.839844 19.265625 1.121094 19.832031 1.625 C 20.402344 2.128906 20.785156 2.863281 20.851562 3.703125 C 20.917969 4.539062 20.652344 5.328125 20.171875 5.925781 C 19.691406 6.519531 18.992188 6.925781 18.195312 6.992188 L 18.191406 6.996094 C 17.699219 7.035156 17.226562 6.949219 16.804688 6.753906 L 16.230469 7.632812 C 16.992188 8.328125 17.570312 9.253906 17.851562 10.351562 C 18.078125 11.242188 18.082031 12.140625 17.902344 12.984375 L 18.5625 13.234375 C 18.578125 13.207031 18.597656 13.179688 18.613281 13.152344 C 19.050781 12.5 19.722656 12.023438 20.527344 11.875 C 21.332031 11.730469 22.121094 11.9375 22.738281 12.394531 C 23.359375 12.851562 23.8125 13.558594 23.953125 14.402344 C 24.097656 15.246094 23.898438 16.070312 23.460938 16.722656 C 23.027344 17.375 22.351562 17.851562 21.546875 17.996094 C 20.742188 18.144531 19.957031 17.9375 19.335938 17.480469 C 18.714844 17.023438 18.261719 16.316406 18.121094 15.472656 C 18.0625 15.132812 18.0625 14.785156 18.113281 14.445312 L 17.484375 14.207031 C 17.460938 14.257812 17.4375 14.308594 17.410156 14.359375 C 16.53125 16.085938 14.660156 17.375 12.769531 17.375 C 12.6875 17.375 12.601562 17.371094 12.515625 17.367188 L 12.402344 18.125 C 12.972656 18.371094 13.472656 18.8125 13.804688 19.414062 C 14.207031 20.140625 14.292969 20.972656 14.101562 21.726562 C 13.910156 22.480469 13.445312 23.160156 12.75 23.582031 L 12.742188 23.585938 C 12.050781 24.007812 11.261719 24.09375 10.542969 23.894531 C 9.824219 23.691406 9.175781 23.203125 8.773438 22.476562 L 8.769531 22.460938 C 8.371094 21.738281 8.289062 20.910156 8.480469 20.160156 C 8.671875 19.40625 9.136719 18.726562 9.832031 18.304688 L 9.839844 18.300781 C 10.25 18.050781 10.710938 17.910156 11.1875 17.894531 L 11.300781 17.128906 C 10.269531 16.777344 9.199219 15.914062 8.5625 14.996094 Z M 15.53125 14.851562 C 15.855469 14.535156 16.125 14.164062 16.332031 13.753906 C 16.796875 12.847656 16.945312 11.757812 16.667969 10.683594 C 16.382812 9.558594 15.691406 8.667969 14.804688 8.128906 C 13.917969 7.589844 12.832031 7.410156 11.761719 7.710938 C 10.691406 8.011719 9.839844 8.738281 9.328125 9.667969 L 9.324219 9.667969 C 8.8125 10.601562 8.640625 11.738281 8.925781 12.859375 C 9.058594 13.375 9.273438 13.839844 9.554688 14.242188 C 9.699219 14.453125 9.863281 14.648438 10.042969 14.828125 C 10.539062 14.714844 11.078125 14.65625 11.480469 14.363281 C 11.515625 14.304688 11.554688 14.222656 11.59375 14.132812 C 11.648438 13.996094 11.703125 13.84375 11.734375 13.742188 C 11.59375 13.570312 11.476562 13.378906 11.363281 13.1875 L 10.984375 12.558594 C 10.847656 12.339844 10.777344 12.144531 10.769531 11.980469 C 10.769531 11.90625 10.78125 11.835938 10.808594 11.777344 C 10.835938 11.710938 10.878906 11.660156 10.9375 11.617188 C 10.964844 11.597656 10.996094 11.582031 11.027344 11.570312 C 11.003906 11.226562 10.996094 10.800781 11.011719 10.4375 C 11.019531 10.351562 11.035156 10.269531 11.058594 10.183594 C 11.15625 9.820312 11.394531 9.53125 11.695312 9.332031 C 11.859375 9.222656 12.039062 9.140625 12.226562 9.082031 C 12.347656 9.046875 12.125 8.644531 12.25 8.632812 C 12.847656 8.566406 13.816406 9.140625 14.234375 9.617188 C 14.445312 9.851562 14.574219 10.167969 14.605469 10.585938 L 14.582031 11.609375 C 14.683594 11.644531 14.753906 11.714844 14.78125 11.828125 C 14.808594 11.953125 14.777344 12.128906 14.675781 12.367188 C 14.675781 12.371094 14.671875 12.375 14.667969 12.378906 L 14.238281 13.121094 C 14.082031 13.394531 13.921875 13.667969 13.710938 13.882812 C 13.730469 13.914062 13.75 13.941406 13.769531 13.96875 C 13.855469 14.101562 13.941406 14.230469 14.050781 14.347656 C 14.054688 14.351562 14.058594 14.355469 14.058594 14.359375 C 14.382812 14.601562 15.007812 14.71875 15.53125 14.851562 Z M 1.988281 14.597656 C 2.433594 14.859375 2.9375 14.910156 3.398438 14.78125 C 3.867188 14.648438 4.285156 14.328125 4.546875 13.855469 L 4.558594 13.832031 C 4.808594 13.363281 4.859375 12.832031 4.734375 12.351562 C 4.609375 11.859375 4.304688 11.417969 3.855469 11.144531 L 3.832031 11.132812 C 3.386719 10.871094 2.878906 10.820312 2.417969 10.949219 C 1.953125 11.082031 1.53125 11.398438 1.269531 11.875 L 1.257812 11.898438 C 1.007812 12.363281 0.960938 12.894531 1.082031 13.378906 C 1.207031 13.867188 1.511719 14.308594 1.964844 14.582031 Z M 8.464844 4.355469 C 8.765625 3.941406 8.921875 3.40625 8.851562 2.84375 C 8.78125 2.289062 8.503906 1.8125 8.109375 1.492188 C 7.714844 1.175781 7.203125 1.015625 6.671875 1.085938 C 6.140625 1.160156 5.6875 1.453125 5.382812 1.867188 C 5.078125 2.28125 4.9375 2.808594 4.992188 3.328125 C 4.996094 3.359375 5 3.386719 5 3.414062 C 5.078125 3.953125 5.351562 4.414062 5.738281 4.726562 C 6.121094 5.035156 6.617188 5.195312 7.132812 5.136719 C 7.160156 5.132812 7.1875 5.128906 7.214844 5.128906 C 7.726562 5.046875 8.167969 4.757812 8.464844 4.355469 Z M 22.628906 16.109375 C 22.925781 15.664062 23.039062 15.117188 22.953125 14.585938 C 22.859375 14.03125 22.5625 13.566406 22.15625 13.269531 C 21.734375 12.957031 21.210938 12.835938 20.703125 12.929688 C 20.175781 13.027344 19.734375 13.339844 19.449219 13.765625 C 19.152344 14.207031 19.035156 14.753906 19.125 15.289062 C 19.21875 15.84375 19.515625 16.304688 19.921875 16.605469 C 20.34375 16.917969 20.863281 17.039062 21.371094 16.945312 C 21.902344 16.847656 22.34375 16.535156 22.628906 16.109375 Z M 9.640625 21.910156 C 9.652344 21.929688 9.664062 21.949219 9.671875 21.96875 C 9.933594 22.425781 10.347656 22.734375 10.804688 22.859375 C 11.261719 22.988281 11.765625 22.9375 12.210938 22.675781 C 12.230469 22.664062 12.246094 22.652344 12.269531 22.644531 C 12.703125 22.367188 12.996094 21.933594 13.117188 21.453125 C 13.242188 20.964844 13.1875 20.421875 12.925781 19.949219 C 12.675781 19.492188 12.261719 19.160156 11.777344 19.027344 C 11.320312 18.898438 10.8125 18.953125 10.371094 19.210938 C 10.351562 19.222656 10.332031 19.234375 10.3125 19.246094 C 9.878906 19.523438 9.585938 19.953125 9.464844 20.433594 C 9.339844 20.914062 9.390625 21.445312 9.640625 21.910156 Z M 19.394531 5.234375 C 19.722656 4.832031 19.878906 4.3125 19.835938 3.789062 C 19.792969 3.242188 19.542969 2.765625 19.175781 2.4375 C 18.808594 2.113281 18.320312 1.929688 17.796875 1.976562 C 17.277344 2.023438 16.824219 2.285156 16.511719 2.671875 C 16.191406 3.066406 16.03125 3.578125 16.070312 4.097656 L 16.070312 4.132812 C 16.117188 4.671875 16.367188 5.140625 16.730469 5.464844 C 17.109375 5.800781 17.597656 5.96875 18.09375 5.929688 L 18.125 5.925781 C 18.640625 5.878906 19.085938 5.617188 19.394531 5.234375 Z M 19.394531 5.234375 "/>
</g>
</svg>
