<svg width="24" height="24" viewBox="0 0 24 24" fill="none" xmlns="http://www.w3.org/2000/svg">
<g id="Frame" clip-path="url(#clip0_117_166)">
<path id="Vector" d="M8 21H16C17.3261 21 18.5979 20.4732 19.5355 19.5355C20.4732 18.5979 21 17.3261 21 16V13C21 12.2044 20.6839 11.4413 20.1213 10.8787C19.5587 10.3161 18.7956 10 18 10H17V8C17 6.67392 16.4732 5.40215 15.5355 4.46447C14.5979 3.52678 13.3261 3 12 3H8C6.67392 3 5.40215 3.52678 4.46447 4.46447C3.52678 5.40215 3 6.67392 3 8V16C3 17.3261 3.52678 18.5979 4.46447 19.5355C5.40215 20.4732 6.67392 21 8 21Z" stroke="#02050A" stroke-width="2" stroke-linecap="round" stroke-linejoin="round"/>
<path id="Vector_2" d="M7 8.5C7 8.10218 7.15804 7.72064 7.43934 7.43934C7.72064 7.15804 8.10218 7 8.5 7H11.5C11.8978 7 12.2794 7.15804 12.5607 7.43934C12.842 7.72064 13 8.10218 13 8.5C13 8.89782 12.842 9.27936 12.5607 9.56066C12.2794 9.84196 11.8978 10 11.5 10H8.5C8.10218 10 7.72064 9.84196 7.43934 9.56066C7.15804 9.27936 7 8.89782 7 8.5Z" stroke="#02050A" stroke-width="2" stroke-linecap="round" stroke-linejoin="round"/>
<path id="Vector_3" d="M7 15.5C7 15.1022 7.15804 14.7206 7.43934 14.4393C7.72064 14.158 8.10218 14 8.5 14H15.5C15.8978 14 16.2794 14.158 16.5607 14.4393C16.842 14.7206 17 15.1022 17 15.5C17 15.8978 16.842 16.2794 16.5607 16.5607C16.2794 16.842 15.8978 17 15.5 17H8.5C8.10218 17 7.72064 16.842 7.43934 16.5607C7.15804 16.2794 7 15.8978 7 15.5Z" stroke="#02050A" stroke-width="2" stroke-linecap="round" stroke-linejoin="round"/>
</g>
<defs>
<clipPath id="clip0_117_166">
<rect width="24" height="24" fill="white"/>
</clipPath>
</defs>
</svg>
