<?xml version="1.0" encoding="UTF-8"?>
<svg xmlns="http://www.w3.org/2000/svg" xmlns:xlink="http://www.w3.org/1999/xlink" width="64px" height="64px" viewBox="0 0 64 64" version="1.1">
<g id="surface1">
<path style="fill:none;stroke-width:2;stroke-linecap:butt;stroke-linejoin:miter;stroke:rgb(41.960784%,42.352941%,43.137255%);stroke-opacity:1;stroke-miterlimit:4;" d="M 60.100159 7.001709 L 44.100098 7.001709 C 43.00116 7.001709 42.100586 7.898315 42.100586 9.001221 L 42.100586 13.083557 L 42.100586 1.998962 C 42.100586 0.900024 41.200012 -0.000549316 40.101074 -0.000549316 L 20.098022 -0.000549316 C 18.999084 -0.000549316 18.098511 0.900024 18.098511 1.998962 L 18.098511 17.582458 L 18.098511 14 C 18.098511 12.901062 17.201904 12.000488 16.098999 12.000488 L 2.09845 12.000488 C 0.999512 12.000488 0.098938 12.901062 0.098938 14 L 0.098938 26.001038 C 0.098938 27.099976 0.999512 28.000549 2.09845 28.000549 L 60.100159 28.000549 C 61.199097 28.000549 62.09967 27.099976 62.09967 26.001038 L 62.09967 9.001221 C 62.09967 7.898315 61.199097 7.001709 60.100159 7.001709 Z M 60.100159 7.001709 " transform="matrix(0.984615,0,0,0.984615,0.984615,18.215385)"/>
<path style="fill:none;stroke-width:2;stroke-linecap:butt;stroke-linejoin:miter;stroke:rgb(41.960784%,42.352941%,43.137255%);stroke-opacity:1;stroke-miterlimit:4;" d="M 27.100281 14.999756 L 30.099548 12.000488 L 30.099548 20.998291 " transform="matrix(0.984615,0,0,0.984615,0.984615,18.215385)"/>
<path style="fill:none;stroke-width:2;stroke-linecap:butt;stroke-linejoin:miter;stroke:rgb(41.960784%,42.352941%,43.137255%);stroke-opacity:1;stroke-miterlimit:4;" d="M 50.098633 15.999512 C 50.098633 14.900574 50.999207 14 52.098145 14 C 53.20105 14 54.101624 14.900574 54.101624 15.999512 C 54.101624 19.300293 50.098633 21.998047 50.098633 21.998047 L 55.101379 21.998047 " transform="matrix(0.984615,0,0,0.984615,0.984615,18.215385)"/>
<path style="fill:none;stroke-width:2;stroke-linecap:butt;stroke-linejoin:miter;stroke:rgb(41.960784%,42.352941%,43.137255%);stroke-opacity:1;stroke-miterlimit:4;" d="M 7.101196 21.898865 C 7.101196 23.00177 8.00177 23.898376 9.100708 23.898376 C 10.199646 23.898376 11.10022 23.00177 11.10022 21.898865 C 11.10022 20.799927 10.199646 19.899353 9.100708 19.899353 C 10.199646 19.899353 11.10022 18.998779 11.10022 17.899841 C 11.10022 16.800903 10.199646 15.90033 9.100708 15.90033 C 8.00177 15.90033 7.101196 16.800903 7.101196 17.899841 " transform="matrix(0.984615,0,0,0.984615,0.984615,18.215385)"/>
</g>
</svg>
