<?xml version="1.0" encoding="UTF-8"?>
<svg xmlns="http://www.w3.org/2000/svg" xmlns:xlink="http://www.w3.org/1999/xlink" width="64px" height="64px" viewBox="0 0 64 64" version="1.1">
<g id="surface1">
<path style=" stroke:none;fill-rule:nonzero;fill:rgb(0%,0%,0%);fill-opacity:1;" d="M 0 60.832031 C 0 62.007812 0.953125 62.960938 2.128906 62.960938 L 61.871094 62.960938 C 63.046875 62.960938 64 62.007812 64 60.832031 L 64 3.167969 C 64 1.992188 63.046875 1.039062 61.871094 1.039062 L 2.128906 1.039062 C 0.953125 1.039062 0 1.992188 0 3.167969 Z M 4.257812 5.296875 L 59.742188 5.296875 L 59.742188 39.695312 L 30.617188 39.695312 L 30.617188 32.167969 L 38.789062 24.0625 C 39.191406 23.664062 39.417969 23.121094 39.417969 22.554688 C 39.417969 21.988281 39.195312 21.445312 38.792969 21.042969 L 38.738281 20.984375 L 50.847656 11.898438 C 51.789062 11.195312 51.980469 9.859375 51.273438 8.917969 C 50.570312 7.976562 49.234375 7.785156 48.292969 8.492188 L 35.695312 17.941406 L 35.28125 17.527344 C 34.59375 16.839844 33.527344 16.707031 32.6875 17.203125 L 28.441406 19.722656 C 28.664062 18.925781 28.789062 18.089844 28.789062 17.226562 C 28.789062 12.175781 24.679688 8.066406 19.628906 8.066406 C 14.582031 8.066406 10.472656 12.175781 10.472656 17.226562 C 10.472656 19.320312 11.179688 21.25 12.367188 22.792969 C 10.273438 24.621094 9.707031 27.394531 9.476562 28.523438 C 8.878906 31.457031 8.796875 35.28125 8.789062 39.695312 L 4.257812 39.695312 Z M 19.628906 22.125 C 16.929688 22.125 14.730469 19.925781 14.730469 17.226562 C 14.730469 14.523438 16.929688 12.328125 19.628906 12.328125 C 22.332031 12.328125 24.527344 14.523438 24.527344 17.226562 C 24.527344 19.925781 22.332031 22.125 19.628906 22.125 Z M 13.652344 29.375 C 13.953125 27.886719 14.359375 26.964844 14.820312 26.382812 L 24.972656 26.382812 C 25.351562 26.382812 25.730469 26.28125 26.058594 26.085938 L 33.4375 21.710938 L 34.269531 22.542969 L 26.984375 29.769531 C 26.582031 30.167969 26.355469 30.714844 26.355469 31.28125 L 26.355469 39.695312 L 13.046875 39.695312 C 13.058594 35.519531 13.132812 31.925781 13.652344 29.375 Z M 59.742188 43.953125 L 59.742188 58.703125 L 4.257812 58.703125 L 4.257812 43.953125 Z M 59.742188 43.953125 "/>
<path style=" stroke:none;fill-rule:nonzero;fill:rgb(0%,0%,0%);fill-opacity:1;" d="M 55.597656 48.957031 L 17.265625 48.957031 L 17.265625 48.304688 C 17.265625 47.125 16.308594 46.171875 15.132812 46.171875 C 13.957031 46.171875 13.003906 47.125 13.003906 48.304688 L 13.003906 48.957031 L 8.402344 48.957031 C 7.226562 48.957031 6.273438 49.910156 6.273438 51.089844 C 6.273438 52.265625 7.226562 53.21875 8.402344 53.21875 L 13.003906 53.21875 L 13.003906 53.875 C 13.003906 55.050781 13.957031 56.003906 15.132812 56.003906 C 16.308594 56.003906 17.265625 55.050781 17.265625 53.875 L 17.265625 53.21875 L 55.597656 53.21875 C 56.773438 53.21875 57.726562 52.265625 57.726562 51.089844 C 57.726562 49.910156 56.773438 48.957031 55.597656 48.957031 Z M 55.597656 48.957031 "/>
</g>
</svg>
