<?xml version="1.0" standalone="no"?>
<!DOCTYPE svg PUBLIC "-//W3C//DTD SVG 20010904//EN"
 "http://www.w3.org/TR/2001/REC-SVG-20010904/DTD/svg10.dtd">
<svg version="1.0" xmlns="http://www.w3.org/2000/svg"
 width="64.000000pt" height="64.000000pt" viewBox="0 0 64.000000 64.000000"
 preserveAspectRatio="xMidYMid meet">
<metadata>
Created by potrace 1.10, written by Peter Selinger 2001-2011
</metadata>
<g transform="translate(0.000000,64.000000) scale(0.100000,-0.100000)"
fill="#000000" stroke="none">
<path d="M267 599 c-91 -14 -179 -89 -214 -182 -15 -40 -16 -131 -3 -179 26
-91 135 -181 235 -193 112 -14 235 55 285 162 31 66 32 171 2 229 -64 123
-174 182 -305 163z m30 -26 c-4 -3 -7 0 -7 7 0 7 3 10 7 7 3 -4 3 -10 0 -14z
m-40 -10 c-4 -3 -7 0 -7 7 0 7 3 10 7 7 3 -4 3 -10 0 -14z m123 13 c0 -3 -4
-8 -10 -11 -5 -3 -10 -1 -10 4 0 6 5 11 10 11 6 0 10 -2 10 -4z m-163 -28 c-3
-8 -6 -5 -6 6 -1 11 2 17 5 13 3 -3 4 -12 1 -19z m198 12 c-3 -5 -11 -10 -16
-10 -6 0 -7 5 -4 10 3 6 11 10 16 10 6 0 7 -4 4 -10z m-228 -22 c-3 -8 -6 -5
-6 6 -1 11 2 17 5 13 3 -3 4 -12 1 -19z m174 -5 c9 -8 20 -13 25 -12 19 3 28
-2 17 -9 -7 -4 14 -7 47 -6 34 0 63 -3 66 -7 3 -5 -1 -9 -9 -9 -15 0 -11 -60
5 -71 5 -3 10 -13 12 -22 3 -20 42 -67 56 -67 5 0 10 -5 10 -11 0 -6 -7 -9
-15 -6 -8 4 -17 2 -20 -2 -3 -5 2 -11 10 -15 8 -3 15 -11 15 -17 0 -8 -4 -8
-15 1 -11 9 -22 5 -55 -21 -22 -18 -52 -48 -66 -66 -14 -18 -39 -40 -57 -49
-25 -13 -15 1 43 60 41 42 69 76 63 76 -6 0 -14 8 -16 18 -3 12 -7 7 -12 -15
-4 -17 -17 -41 -29 -52 l-21 -20 -20 23 c-11 12 -22 33 -23 47 -2 13 -8 28
-12 33 -5 5 -6 0 -3 -12 9 -35 -2 -50 -32 -45 -17 4 -25 11 -23 21 5 25 27 25
38 0 l10 -23 -3 25 c-1 19 -8 26 -29 28 -25 3 -28 0 -28 -27 0 -23 5 -31 18
-32 13 0 14 -2 2 -6 -8 -3 -18 -11 -22 -17 -4 -6 -9 14 -10 44 -1 48 -2 45 -7
-24 l-6 -80 -40 35 c-30 26 -35 28 -20 8 27 -34 90 -89 104 -89 5 0 8 -7 5
-15 -8 -20 -19 -13 -111 76 -88 85 -123 125 -123 145 0 7 15 30 32 51 18 21
26 32 17 25 -16 -12 -16 -9 -2 30 18 53 30 68 55 68 10 0 30 7 43 16 14 9 25
14 25 10 0 -3 14 3 31 13 32 20 52 18 80 -6z m94 17 c3 -5 -1 -10 -10 -10 -9
0 -13 5 -10 10 3 6 8 10 10 10 2 0 7 -4 10 -10z m-298 -37 c-4 -3 -7 0 -7 7 0
7 3 10 7 7 3 -4 3 -10 0 -14z m330 11 c-3 -3 -12 -4 -19 -1 -8 3 -5 6 6 6 11
1 17 -2 13 -5z m-360 -36 c-3 -8 -6 -5 -6 6 -1 11 2 17 5 13 3 -3 4 -12 1 -19z
m418 -18 c3 -5 -3 -10 -14 -10 -12 0 -21 5 -21 10 0 6 6 10 14 10 8 0 18 -4
21 -10z m-435 -15 c0 -8 -2 -15 -4 -15 -2 0 -6 7 -10 15 -3 8 -1 15 4 15 6 0
10 -7 10 -15z m450 -20 c10 -12 10 -15 -1 -15 -10 -1 -10 -3 2 -10 9 -5 16
-23 17 -40 1 -27 -2 -30 -14 -19 -8 7 -13 18 -10 25 3 7 1 14 -3 16 -12 4 -23
58 -12 58 5 0 14 -7 21 -15z m-466 -10 c3 -8 1 -15 -3 -15 -5 0 -11 7 -15 15
-3 8 -1 15 3 15 5 0 11 -7 15 -15z m-14 -36 c0 -6 -4 -7 -10 -4 -5 3 -10 11
-10 16 0 6 5 7 10 4 6 -3 10 -11 10 -16z m-5 -29 c3 -5 2 -10 -4 -10 -5 0 -13
5 -16 10 -3 6 -2 10 4 10 5 0 13 -4 16 -10z m-10 -30 c3 -5 1 -10 -4 -10 -6 0
-11 5 -11 10 0 6 2 10 4 10 3 0 8 -4 11 -10z m11 -47 c-7 -7 -26 7 -26 19 0 6
6 6 15 -2 9 -7 13 -15 11 -17z m14 -34 c0 -4 -7 -6 -15 -3 -8 4 -15 10 -15 15
0 4 7 6 15 3 8 -4 15 -10 15 -15z m480 -10 c0 -6 -4 -7 -10 -4 -5 3 -10 11
-10 16 0 6 5 7 10 4 6 -3 10 -11 10 -16z m-200 -14 c0 -8 7 -15 15 -15 8 0 15
-4 15 -9 0 -16 -24 -28 -61 -30 -33 -1 -36 1 -35 26 1 20 8 29 26 34 38 11 40
10 40 -6z m-275 -5 c3 -5 2 -10 -4 -10 -5 0 -13 5 -16 10 -3 6 -2 10 4 10 5 0
13 -4 16 -10z m82 -62 c-6 -3 -1 -8 12 -11 21 -5 21 -5 -1 -3 -13 0 -23 8 -23
16 -1 8 -6 14 -13 13 -7 -2 -12 8 -12 25 l0 27 24 -30 c15 -19 20 -32 13 -37z
m370 45 c-4 -3 -7 0 -7 7 0 7 3 10 7 7 3 -4 3 -10 0 -14z m-260 -10 c-4 -3 -7
0 -7 7 0 7 3 10 7 7 3 -4 3 -10 0 -14z m213 -1 c0 -22 -34 -52 -58 -52 l-27 0
30 29 c29 28 55 39 55 23z m-383 -8 c-3 -3 -12 -4 -19 -1 -8 3 -5 6 6 6 11 1
17 -2 13 -5z m10 -31 c-4 -3 -10 -3 -14 0 -3 4 0 7 7 7 7 0 10 -3 7 -7z m208
-3 c3 -6 -5 -10 -19 -10 -14 0 -28 5 -31 10 -3 6 5 10 19 10 14 0 28 -4 31
-10z"/>
<path d="M203 480 c-38 -34 -50 -50 -40 -50 2 0 23 20 47 45 54 55 50 59 -7 5z"/>
<path d="M207 432 c-64 -65 -87 -94 -86 -112 0 -16 3 -19 6 -10 26 67 27 67
33 0 l7 -65 1 70 c2 69 3 71 47 113 41 39 48 42 102 42 52 0 60 -3 97 -37 l40
-38 -43 53 c-79 96 -93 95 -204 -16z m148 58 c4 -6 -12 -10 -40 -10 -28 0 -44
4 -40 10 3 6 21 10 40 10 19 0 37 -4 40 -10z"/>
<path d="M430 470 c0 -5 10 -15 23 -21 22 -12 22 -12 3 10 -21 23 -26 26 -26
11z"/>
<path d="M223 408 c-23 -30 -24 -41 -2 -21 12 12 20 25 17 28 -3 3 -10 0 -15
-7z"/>
<path d="M260 413 c0 -5 5 -15 10 -23 7 -12 10 -12 10 -1 0 8 6 11 18 7 14 -5
14 -4 -2 9 -21 16 -36 19 -36 8z"/>
<path d="M400 411 c0 -5 7 -12 16 -15 14 -5 15 -4 4 9 -14 17 -20 19 -20 6z"/>
<path d="M330 389 c0 -10 27 -19 34 -12 11 12 6 19 -14 19 -11 0 -20 -3 -20
-7z"/>
<path d="M226 371 c-27 -30 0 -40 57 -20 33 11 44 18 33 22 -18 7 -48 -1 -57
-16 -4 -5 -12 -6 -19 -2 -9 6 -9 9 1 16 7 4 11 10 8 14 -3 3 -13 -3 -23 -14z
m9 -21 c3 -5 4 -10 1 -10 -3 0 -8 5 -11 10 -3 6 -4 10 -1 10 3 0 8 -4 11 -10z"/>
<path d="M396 377 c3 -10 9 -15 12 -12 3 3 0 11 -7 18 -10 9 -11 8 -5 -6z"/>
<path d="M371 363 c-1 -17 36 -36 44 -23 3 5 -3 10 -14 10 -10 0 -22 6 -24 13
-4 9 -6 9 -6 0z"/>
<path d="M502 320 c0 -19 2 -27 5 -17 2 9 2 25 0 35 -3 9 -5 1 -5 -18z"/>
<path d="M308 323 c6 -2 18 -2 25 0 6 3 1 5 -13 5 -14 0 -19 -2 -12 -5z"/>
</g>
</svg>
