<?xml version="1.0" encoding="UTF-8"?>
<svg xmlns="http://www.w3.org/2000/svg" xmlns:xlink="http://www.w3.org/1999/xlink" width="30px" height="30px" viewBox="0 0 30 30" version="1.1">
<g id="surface1">
<path style=" stroke:none;fill-rule:nonzero;fill:rgb(0%,0%,0%);fill-opacity:1;" d="M 5.285156 2.21875 C 4.011719 2.441406 3.003906 3.523438 3 4.679688 C 3 5.339844 3.148438 5.632812 4.386719 7.425781 C 5.171875 8.578125 5.203125 8.796875 4.609375 8.796875 C 4.285156 8.796875 2.613281 9.675781 1.996094 10.175781 C 1.328125 10.707031 1.03125 11.039062 0.363281 11.960938 L 0 12.46875 L 0 15.890625 C 0 17.773438 0.0351562 19.328125 0.078125 19.34375 C 0.125 19.363281 0.324219 19.613281 0.523438 19.910156 C 1.125 20.785156 1.746094 21.398438 2.578125 21.949219 C 3.496094 22.558594 3.496094 22.421875 2.601562 23.777344 C 1.390625 25.601562 1.308594 25.878906 1.738281 26.792969 C 2.40625 28.226562 2.726562 28.316406 6.949219 28.316406 C 11.429688 28.316406 11.101562 28.457031 12.980469 25.804688 C 14.515625 23.640625 15.089844 22.90625 15.253906 22.90625 C 15.394531 22.90625 15.976562 23.617188 16.523438 24.460938 C 17.851562 26.515625 18.878906 27.71875 19.621094 28.085938 L 20.09375 28.316406 L 23.671875 28.316406 C 28.070312 28.3125 28.253906 28.261719 28.945312 26.742188 C 29.339844 25.878906 29.210938 25.386719 28.195312 23.898438 C 27.59375 23.011719 27.59375 22.996094 28.125 22.664062 C 28.359375 22.519531 28.875 22.074219 29.273438 21.671875 L 30 20.953125 L 30 11.128906 L 29.394531 10.539062 C 28.359375 9.519531 26.910156 8.796875 25.921875 8.796875 C 25.410156 8.796875 25.453125 8.65625 26.335938 7.417969 C 28.191406 4.808594 28.136719 3.402344 26.136719 2.410156 L 25.648438 2.175781 L 19.148438 2.175781 L 18.648438 2.429688 C 17.941406 2.796875 17.273438 3.5 16.300781 4.910156 C 15.691406 5.789062 15.394531 6.136719 15.253906 6.136719 C 15.050781 6.136719 14.015625 4.832031 13.410156 3.8125 C 13.058594 3.21875 12.429688 2.65625 11.808594 2.382812 C 11.308594 2.160156 6.351562 2.035156 5.285156 2.21875 Z M 11.769531 3.5 C 12 3.621094 12.210938 3.777344 12.238281 3.859375 C 12.296875 4.019531 12.515625 4.363281 12.605469 4.445312 C 12.789062 4.605469 13.191406 5.195312 13.144531 5.238281 C 13.113281 5.265625 13.230469 5.4375 13.398438 5.621094 C 13.835938 6.074219 13.925781 6.195312 14.144531 6.617188 C 14.253906 6.8125 14.398438 7.003906 14.46875 7.027344 C 14.539062 7.054688 14.601562 7.179688 14.601562 7.308594 C 14.601562 7.445312 14.660156 7.539062 14.75 7.539062 C 14.835938 7.539062 14.898438 7.625 14.898438 7.730469 C 14.898438 7.839844 14.941406 7.925781 14.984375 7.925781 C 15.03125 7.925781 15.109375 8.015625 15.164062 8.128906 C 15.253906 8.320312 15.261719 8.320312 15.40625 8.054688 C 15.484375 7.90625 15.605469 7.722656 15.675781 7.65625 C 15.746094 7.582031 15.800781 7.480469 15.800781 7.433594 C 15.800781 7.378906 15.914062 7.21875 16.050781 7.074219 C 16.191406 6.933594 16.300781 6.769531 16.300781 6.71875 C 16.300781 6.664062 16.394531 6.5625 16.503906 6.496094 C 16.621094 6.425781 16.695312 6.316406 16.675781 6.253906 C 16.648438 6.191406 16.738281 6.03125 16.863281 5.902344 C 16.996094 5.765625 17.101562 5.601562 17.101562 5.53125 C 17.101562 5.464844 17.144531 5.414062 17.199219 5.414062 C 17.253906 5.414062 17.300781 5.324219 17.300781 5.21875 C 17.300781 5.109375 17.363281 5.027344 17.453125 5.027344 C 17.539062 5.027344 17.585938 4.988281 17.558594 4.9375 C 17.53125 4.894531 17.65625 4.710938 17.839844 4.539062 C 18.03125 4.359375 18.15625 4.160156 18.128906 4.089844 C 18.101562 4.015625 18.144531 3.960938 18.238281 3.960938 C 18.328125 3.960938 18.398438 3.894531 18.398438 3.808594 C 18.398438 3.726562 18.535156 3.605469 18.699219 3.546875 C 18.863281 3.484375 19 3.402344 19 3.363281 C 19 3.320312 20.511719 3.285156 22.359375 3.285156 C 26.046875 3.285156 25.984375 3.277344 26.523438 3.90625 C 26.71875 4.136719 26.773438 5.21875 26.589844 5.21875 C 26.53125 5.21875 26.5 5.273438 26.523438 5.339844 C 26.546875 5.402344 26.515625 5.507812 26.460938 5.570312 C 26.171875 5.867188 25.941406 6.160156 25.800781 6.425781 C 25.714844 6.585938 25.539062 6.832031 25.410156 6.976562 C 25.148438 7.261719 24.941406 7.59375 24.839844 7.851562 C 24.804688 7.945312 24.714844 8.023438 24.640625 8.023438 C 24.558594 8.023438 24.5 8.085938 24.5 8.167969 C 24.5 8.246094 24.453125 8.3125 24.398438 8.3125 C 24.34375 8.3125 24.300781 8.363281 24.300781 8.433594 C 24.300781 8.5 24.210938 8.605469 24.105469 8.675781 C 23.996094 8.742188 23.929688 8.851562 23.960938 8.925781 C 23.988281 9.007812 23.925781 9.082031 23.796875 9.113281 C 23.675781 9.144531 23.601562 9.226562 23.625 9.296875 C 23.703125 9.535156 23.359375 9.660156 22.625 9.660156 C 21.738281 9.664062 21.730469 9.777344 22.746094 8.421875 C 23.574219 7.316406 23.851562 6.949219 24.648438 5.847656 C 24.871094 5.542969 25.148438 5.179688 25.273438 5.039062 C 25.601562 4.667969 25.570312 4.503906 25.191406 4.578125 C 25.015625 4.609375 23.609375 4.644531 22.066406 4.644531 L 19.25 4.648438 L 18.398438 5.90625 C 17.933594 6.597656 17.484375 7.261719 17.398438 7.390625 C 16.894531 8.171875 15.265625 10.4375 15.210938 10.433594 C 15.179688 10.433594 14.996094 10.167969 14.800781 9.839844 C 14.609375 9.515625 14.40625 9.199219 14.351562 9.144531 C 14.15625 8.933594 13.398438 7.820312 13.398438 7.738281 C 13.398438 7.6875 13.363281 7.636719 13.320312 7.621094 C 13.273438 7.601562 12.78125 6.925781 12.226562 6.113281 L 11.214844 4.644531 L 8.203125 4.613281 C 6.554688 4.601562 5.199219 4.609375 5.199219 4.628906 C 5.199219 4.652344 5.324219 4.828125 5.476562 5.015625 C 5.800781 5.425781 5.941406 5.617188 7.25 7.476562 C 7.800781 8.253906 8.335938 9.023438 8.433594 9.183594 L 8.621094 9.472656 L 7.929688 9.472656 C 7.238281 9.472656 6.800781 9.308594 6.800781 9.054688 C 6.800781 8.988281 6.710938 8.882812 6.59375 8.8125 C 6.484375 8.746094 6.414062 8.65625 6.449219 8.605469 C 6.480469 8.558594 6.40625 8.453125 6.285156 8.371094 C 6.160156 8.289062 6.09375 8.191406 6.128906 8.152344 C 6.171875 8.113281 6.105469 7.984375 5.984375 7.859375 C 5.863281 7.738281 5.796875 7.636719 5.835938 7.636719 C 5.875 7.636719 5.769531 7.503906 5.605469 7.351562 C 5.433594 7.191406 5.300781 7.023438 5.300781 6.976562 C 5.300781 6.929688 5.183594 6.765625 5.046875 6.609375 C 4.910156 6.457031 4.769531 6.234375 4.738281 6.117188 C 4.703125 6 4.621094 5.886719 4.539062 5.855469 C 4.464844 5.828125 4.398438 5.734375 4.398438 5.660156 C 4.398438 5.578125 4.355469 5.507812 4.300781 5.507812 C 4.246094 5.507812 4.199219 5.445312 4.199219 5.375 C 4.199219 5.296875 4.15625 5.21875 4.101562 5.203125 C 3.925781 5.148438 3.949219 4.191406 4.136719 4.011719 C 4.226562 3.925781 4.300781 3.8125 4.300781 3.765625 C 4.300781 3.710938 4.355469 3.671875 4.425781 3.671875 C 4.496094 3.667969 4.664062 3.585938 4.800781 3.480469 C 5.210938 3.171875 11.15625 3.183594 11.769531 3.5 Z M 10.863281 6.113281 C 11.101562 6.363281 11.574219 7.027344 12.988281 9.050781 C 15.183594 12.203125 15.320312 12.1875 17.949219 8.410156 C 18.710938 7.316406 19.445312 6.304688 19.585938 6.160156 L 19.835938 5.894531 L 21.46875 5.894531 C 23.414062 5.894531 23.351562 5.800781 22.335938 7.207031 C 21.203125 8.769531 21.214844 8.761719 20.351562 8.839844 C 18.375 9.015625 17.160156 10.84375 17.898438 12.515625 L 18.101562 12.96875 L 17.75 13.597656 C 17.203125 14.574219 17.28125 14.835938 18.664062 16.691406 C 19.550781 17.886719 19.621094 18.039062 19.300781 18.152344 C 18.964844 18.273438 18.125 19.125 17.894531 19.578125 C 17.621094 20.132812 17.605469 20.128906 16.964844 19.304688 C 15.464844 17.363281 14.894531 17.390625 13.371094 19.5 C 12.769531 20.324219 12.636719 20.363281 12.550781 19.742188 C 12.519531 19.488281 12.46875 19.144531 12.445312 18.980469 C 12.390625 18.648438 11.796875 17.921875 11.496094 17.832031 C 11.183594 17.734375 11.253906 17.550781 12.011719 16.460938 C 13.226562 14.710938 13.28125 14.46875 12.679688 13.519531 L 12.351562 13 L 12.300781 11.308594 C 12.246094 9.460938 12.234375 9.421875 11.566406 8.898438 C 11.308594 8.6875 11.128906 8.648438 10.339844 8.605469 C 9.246094 8.542969 9.28125 8.566406 8.308594 7.195312 C 7.339844 5.816406 7.289062 5.894531 9.136719 5.894531 C 10.59375 5.894531 10.675781 5.90625 10.863281 6.113281 Z M 11.339844 11.230469 L 11.351562 12.75 L 8.5 12.777344 C 5.746094 12.804688 5.636719 12.816406 5.175781 13.03125 C 4.296875 13.449219 3.371094 14.527344 4.023438 14.367188 C 4.148438 14.339844 5.328125 14.308594 6.648438 14.300781 L 9.050781 14.285156 L 9.023438 15.769531 L 9 17.25 L 8.023438 17.320312 C 7.488281 17.359375 6.328125 17.382812 5.453125 17.378906 C 3.621094 17.367188 3.585938 17.386719 4.308594 18.015625 C 5.269531 18.851562 5.300781 18.855469 8.578125 18.84375 L 11.449219 18.828125 L 11.449219 21.890625 L 8.648438 21.886719 C 4.921875 21.882812 4.199219 21.75 2.941406 20.855469 C -0.5 18.417969 -0.578125 13.390625 2.785156 10.902344 C 4.03125 9.984375 4.765625 9.78125 6.96875 9.765625 C 7.890625 9.757812 8.664062 9.734375 8.691406 9.707031 C 8.714844 9.679688 9.320312 9.667969 10.035156 9.683594 L 11.324219 9.714844 Z M 27.308594 10.269531 C 28.308594 10.742188 29.285156 11.742188 29.449219 12.457031 C 29.484375 12.621094 29.554688 12.78125 29.609375 12.8125 C 29.929688 13.003906 29.621094 15.125 29.199219 15.609375 C 28.898438 15.945312 28.894531 16.023438 29.128906 16.300781 C 29.519531 16.757812 29.699219 17.378906 29.699219 18.242188 C 29.699219 18.992188 29.65625 19.164062 29.269531 19.988281 C 28.988281 20.566406 28.230469 21.304688 27.546875 21.664062 L 26.839844 22.03125 L 23.628906 22.09375 C 20.078125 22.167969 19.636719 22.132812 19.210938 21.785156 C 18.425781 21.152344 18.695312 19.398438 19.605469 19.191406 C 19.738281 19.160156 21.25 19.121094 22.960938 19.097656 C 26.261719 19.058594 26.429688 19.035156 26.546875 18.59375 C 26.78125 17.675781 26.414062 17.492188 24.363281 17.492188 C 22.546875 17.492188 22.390625 17.445312 22.054688 16.796875 C 21.675781 16.058594 21.769531 15.328125 22.308594 14.824219 L 22.613281 14.546875 L 24.304688 14.566406 C 26.308594 14.589844 26.546875 14.503906 26.546875 13.722656 C 26.546875 12.949219 26.550781 12.949219 22.945312 12.949219 C 18.851562 12.949219 18.53125 12.8125 18.808594 11.113281 C 18.988281 9.992188 19.09375 9.964844 23.300781 9.988281 L 26.75 10.003906 Z M 11.710938 13.804688 L 12.210938 14.503906 L 11.769531 15.054688 C 11.53125 15.359375 11.101562 15.933594 10.820312 16.332031 C 10.539062 16.730469 10.089844 17.363281 9.820312 17.734375 L 9.328125 18.410156 L 8.589844 18.410156 C 7.921875 18.410156 7.855469 18.398438 7.886719 18.226562 C 7.929688 17.957031 8.304688 17.691406 8.65625 17.691406 C 9.171875 17.6875 9.398438 17.449219 9.398438 16.933594 C 9.398438 16.3125 9.566406 15.796875 9.84375 15.527344 C 9.96875 15.40625 10.105469 15.210938 10.140625 15.101562 C 10.179688 14.992188 10.273438 14.878906 10.355469 14.84375 C 10.546875 14.777344 10.546875 14.261719 10.351562 14.078125 C 10.269531 13.996094 10.199219 13.902344 10.199219 13.871094 C 10.199219 13.832031 10.109375 13.691406 10 13.554688 C 9.664062 13.144531 9.730469 13.082031 10.503906 13.097656 L 11.210938 13.109375 Z M 19.773438 13.292969 C 19.976562 13.371094 20.183594 13.425781 20.246094 13.402344 C 20.503906 13.308594 20.734375 13.484375 20.558594 13.652344 C 20.476562 13.738281 20.398438 13.835938 20.398438 13.863281 C 20.398438 13.921875 20.296875 14.058594 20.019531 14.351562 C 19.875 14.511719 20.050781 14.882812 20.273438 14.882812 C 20.34375 14.882812 20.398438 14.960938 20.398438 15.054688 C 20.398438 15.144531 20.535156 15.367188 20.699219 15.550781 C 20.863281 15.730469 21 15.929688 21 15.996094 C 21 16.058594 21.09375 16.195312 21.210938 16.296875 C 21.324219 16.398438 21.53125 16.683594 21.65625 16.929688 C 21.785156 17.175781 21.996094 17.460938 22.121094 17.554688 C 22.488281 17.839844 23.019531 18.542969 22.949219 18.652344 C 22.914062 18.707031 22.585938 18.75 22.214844 18.75 L 21.546875 18.75 L 21.121094 18.195312 C 20.886719 17.890625 20.269531 17.074219 19.753906 16.382812 C 19.238281 15.691406 18.699219 14.984375 18.550781 14.8125 L 18.285156 14.503906 L 18.804688 13.820312 C 19.09375 13.449219 19.34375 13.144531 19.363281 13.144531 C 19.390625 13.144531 19.570312 13.210938 19.773438 13.292969 Z M 16.09375 19.835938 C 16.511719 20.4375 16.886719 20.96875 16.929688 21.019531 C 17.03125 21.136719 18.15625 22.71875 19.046875 23.984375 C 19.398438 24.496094 19.753906 24.980469 19.824219 25.050781 C 20.003906 25.246094 20.195312 25.539062 20.265625 25.734375 C 20.320312 25.886719 20.570312 25.902344 23.410156 25.917969 C 25.109375 25.925781 26.578125 25.9375 26.675781 25.941406 C 26.933594 25.957031 26.890625 25.785156 26.519531 25.359375 C 26.234375 25.03125 25.800781 24.472656 25.21875 23.6875 C 25.125 23.5625 24.878906 23.25 24.675781 22.992188 C 24.46875 22.738281 24.300781 22.476562 24.300781 22.414062 C 24.300781 22.335938 24.421875 22.320312 24.675781 22.359375 C 24.878906 22.394531 25.210938 22.421875 25.40625 22.421875 C 25.835938 22.421875 26.09375 22.640625 26.625 23.445312 C 26.765625 23.65625 26.996094 23.953125 27.140625 24.113281 C 27.285156 24.273438 27.425781 24.480469 27.453125 24.574219 C 27.488281 24.664062 27.550781 24.742188 27.59375 24.742188 C 27.640625 24.742188 27.703125 24.847656 27.738281 24.984375 C 27.773438 25.113281 27.851562 25.226562 27.898438 25.226562 C 27.953125 25.226562 28 25.3125 28 25.417969 C 28 25.523438 28.046875 25.613281 28.101562 25.613281 C 28.15625 25.613281 28.199219 25.765625 28.199219 25.957031 C 28.199219 26.164062 28.160156 26.273438 28.101562 26.242188 C 28.039062 26.207031 28 26.296875 28 26.457031 C 28 27.070312 27.789062 27.105469 23.75 27.125 C 21.175781 27.140625 20.078125 27.109375 19.90625 27.027344 C 19.59375 26.886719 19 26.289062 19 26.125 C 19 26.058594 18.953125 26 18.898438 26 C 18.839844 26 18.75 25.902344 18.695312 25.78125 C 18.535156 25.4375 18.339844 25.132812 18.140625 24.902344 C 17.78125 24.492188 17.300781 23.789062 17.300781 23.683594 C 17.300781 23.625 17.234375 23.554688 17.148438 23.519531 C 17.070312 23.492188 17 23.382812 17 23.28125 C 17 23.179688 16.960938 23.097656 16.90625 23.097656 C 16.804688 23.097656 16.199219 22.273438 16.199219 22.136719 C 16.199219 22.089844 16.164062 22.035156 16.125 22.023438 C 15.996094 21.964844 15.53125 21.320312 15.460938 21.09375 C 15.375 20.832031 15.21875 20.8125 15.128906 21.046875 C 15.09375 21.136719 15.035156 21.234375 15 21.261719 C 14.96875 21.285156 14.835938 21.476562 14.710938 21.671875 C 14.585938 21.871094 14.441406 22.035156 14.390625 22.035156 C 14.339844 22.035156 14.300781 22.117188 14.300781 22.21875 C 14.300781 22.320312 14.234375 22.425781 14.148438 22.457031 C 14.070312 22.492188 14 22.582031 14 22.660156 C 14 22.742188 13.953125 22.808594 13.898438 22.808594 C 13.84375 22.808594 13.800781 22.863281 13.800781 22.929688 C 13.800781 22.996094 13.695312 23.160156 13.570312 23.292969 C 13.445312 23.429688 13.074219 23.914062 12.75 24.382812 C 12.429688 24.851562 12.058594 25.347656 11.929688 25.476562 C 11.804688 25.613281 11.699219 25.78125 11.699219 25.859375 C 11.699219 25.9375 11.65625 26 11.601562 26 C 11.546875 26 11.5 26.0625 11.5 26.144531 C 11.5 26.222656 11.460938 26.289062 11.410156 26.289062 C 11.363281 26.289062 11.265625 26.425781 11.195312 26.589844 C 10.988281 27.078125 10.828125 27.09375 7.050781 27.121094 C 3.675781 27.140625 3 27.09375 3 26.84375 C 3 26.796875 2.941406 26.777344 2.859375 26.800781 C 2.765625 26.839844 2.734375 26.800781 2.769531 26.679688 C 2.796875 26.582031 2.769531 26.472656 2.710938 26.4375 C 2.648438 26.40625 2.601562 26.289062 2.601562 26.1875 C 2.601562 26.082031 2.554688 26 2.5 26 C 2.445312 26 2.398438 25.949219 2.398438 25.898438 C 2.398438 25.839844 2.445312 25.820312 2.5 25.855469 C 2.554688 25.886719 2.601562 25.820312 2.601562 25.707031 C 2.601562 25.519531 2.65625 25.429688 2.976562 25.085938 C 3.046875 25.007812 3.101562 24.902344 3.101562 24.84375 C 3.101562 24.789062 3.144531 24.742188 3.199219 24.742188 C 3.253906 24.742188 3.300781 24.675781 3.300781 24.597656 C 3.300781 24.515625 3.339844 24.453125 3.390625 24.453125 C 3.441406 24.453125 3.523438 24.320312 3.585938 24.164062 C 3.644531 24.003906 3.730469 23.871094 3.785156 23.871094 C 3.835938 23.871094 3.90625 23.796875 3.941406 23.703125 C 4.03125 23.460938 4.226562 23.15625 4.398438 22.988281 C 4.484375 22.910156 4.664062 22.683594 4.800781 22.492188 L 5.050781 22.132812 L 5.835938 22.132812 C 6.265625 22.132812 6.601562 22.171875 6.585938 22.214844 C 6.550781 22.300781 5.675781 23.480469 4.523438 24.992188 C 3.808594 25.9375 3.769531 26.046875 4.214844 25.960938 C 4.386719 25.929688 5.789062 25.902344 7.339844 25.898438 L 10.148438 25.890625 L 10.785156 24.953125 C 11.128906 24.4375 11.613281 23.757812 11.855469 23.4375 C 12.101562 23.117188 12.335938 22.789062 12.375 22.707031 C 12.453125 22.558594 13.214844 21.496094 14 20.449219 C 14.523438 19.753906 14.625 19.601562 14.898438 19.113281 C 15.195312 18.589844 15.269531 18.632812 16.09375 19.835938 Z M 10.535156 23.175781 C 10.804688 23.597656 9.585938 24.738281 8.789062 24.804688 C 7.875 24.886719 6.199219 24.757812 6.199219 24.605469 C 6.199219 24.410156 7.101562 23.289062 7.328125 23.195312 C 7.605469 23.089844 10.46875 23.070312 10.535156 23.175781 Z M 23.914062 23.78125 C 24.839844 24.734375 24.804688 24.761719 22.820312 24.777344 C 20.925781 24.796875 20.378906 24.542969 20.054688 23.511719 L 19.984375 23.292969 L 23.441406 23.292969 Z M 23.914062 23.78125 "/>
</g>
</svg>
