<?xml version="1.0" encoding="UTF-8"?>
<svg xmlns="http://www.w3.org/2000/svg" xmlns:xlink="http://www.w3.org/1999/xlink" width="24px" height="24px" viewBox="0 0 24 24" version="1.1">
<g id="surface1">
<path style=" stroke:none;fill-rule:nonzero;fill:rgb(0%,0%,0%);fill-opacity:1;" d="M 12.78125 4.558594 C 11.699219 5.101562 10.261719 6.480469 9.539062 7.558594 C 8.878906 8.699219 7.921875 9.601562 7.441406 9.601562 C 7.019531 9.601562 5.761719 10.378906 4.679688 11.398438 C 2.699219 13.140625 2.699219 13.199219 4.078125 13.558594 C 4.859375 13.800781 5.339844 14.101562 5.21875 14.339844 C 3.898438 16.738281 3.058594 19.320312 3.359375 20.101562 C 3.839844 21.238281 6.839844 20.820312 8.460938 19.441406 C 9.660156 18.359375 10.199219 18.359375 10.199219 19.5 C 10.199219 19.980469 10.558594 20.398438 11.039062 20.398438 C 12.058594 20.398438 14.398438 17.640625 14.398438 16.441406 C 14.398438 16.019531 15.179688 15.238281 16.078125 14.699219 C 19.679688 12.539062 21.78125 6.898438 19.800781 4.5 C 18.839844 3.300781 15.238281 3.359375 12.78125 4.558594 Z M 19.078125 7.320312 C 19.199219 9.058594 18.898438 9.898438 17.398438 11.640625 C 16.378906 12.78125 15 13.921875 14.339844 14.101562 C 13.738281 14.339844 13.199219 14.941406 13.199219 15.539062 C 13.199219 16.078125 12.839844 17.101562 12.359375 17.699219 C 11.578125 18.78125 11.519531 18.71875 10.558594 16.859375 C 9.960938 15.78125 8.578125 14.339844 7.378906 13.679688 C 5.398438 12.480469 5.339844 12.359375 6.359375 11.578125 C 6.960938 11.160156 7.921875 10.800781 8.519531 10.800781 C 9.121094 10.800781 9.601562 10.558594 9.601562 10.261719 C 9.601562 9.359375 12.71875 5.941406 14.039062 5.339844 C 14.761719 5.101562 16.140625 4.921875 17.101562 4.980469 C 18.71875 5.101562 18.898438 5.339844 19.078125 7.320312 Z M 8.640625 16.378906 C 9.121094 17.160156 9 17.578125 8.101562 18.238281 C 5.398438 20.28125 3.601562 18.539062 5.820312 16.078125 C 6.960938 14.820312 7.738281 14.878906 8.640625 16.378906 Z M 8.640625 16.378906 "/>
<path style=" stroke:none;fill-rule:nonzero;fill:rgb(0%,0%,0%);fill-opacity:1;" d="M 13.800781 8.160156 C 13.140625 8.878906 13.199219 9.238281 13.980469 10.078125 C 14.941406 10.980469 15.058594 10.980469 16.019531 10.078125 C 16.800781 9.238281 16.859375 8.878906 16.199219 8.160156 C 15.78125 7.621094 15.238281 7.199219 15 7.199219 C 14.761719 7.199219 14.21875 7.621094 13.800781 8.160156 Z M 13.800781 8.160156 "/>
</g>
</svg>
