<?xml version="1.0" encoding="UTF-8"?>
<svg xmlns="http://www.w3.org/2000/svg" xmlns:xlink="http://www.w3.org/1999/xlink" width="64px" height="64px" viewBox="0 0 64 64" version="1.1">
<g id="surface1">
<path style="fill:none;stroke-width:1;stroke-linecap:round;stroke-linejoin:round;stroke:rgb(0%,0%,0%);stroke-opacity:1;stroke-miterlimit:4;" d="M 14.25 23.695312 L 14.25 18.266602 " transform="matrix(1.333333,0,0,1.333333,0,0)"/>
<path style="fill:none;stroke-width:1;stroke-linecap:round;stroke-linejoin:round;stroke:rgb(0%,0%,0%);stroke-opacity:1;stroke-miterlimit:4;" d="M 11.537109 20.982422 L 16.962891 20.982422 " transform="matrix(1.333333,0,0,1.333333,0,0)"/>
<path style="fill:none;stroke-width:1;stroke-linecap:round;stroke-linejoin:round;stroke:rgb(0%,0%,0%);stroke-opacity:1;stroke-miterlimit:4;" d="M 17.185547 13.693359 L 17.185547 12.079102 C 17.185547 11.499023 16.716797 11.027344 16.133789 11.027344 L 12.366211 11.027344 C 11.783203 11.027344 11.314453 11.499023 11.314453 12.079102 L 11.314453 13.848633 " transform="matrix(1.333333,0,0,1.333333,0,0)"/>
<path style="fill:none;stroke-width:1;stroke-linecap:round;stroke-linejoin:round;stroke:rgb(0%,0%,0%);stroke-opacity:1;stroke-miterlimit:4;" d="M 29.044922 27.735352 L 33.597656 34.564453 C 35.083008 36.793945 37.974609 37.59668 40.397461 36.457031 C 42.662109 35.390625 43.901367 32.90918 43.382812 30.457031 C 42.398437 25.787109 41.613281 21.433594 40.810547 18.474609 C 39.963867 15.363281 36.925781 13.195312 33.527344 13.195312 C 31.473633 13.195312 29.616211 14.006836 28.239258 15.319336 L 19.760742 15.319336 C 18.383789 14.006836 16.526367 13.195312 14.472656 13.195312 C 11.074219 13.195312 8.036133 15.363281 7.189453 18.474609 C 6.386719 21.433594 5.601562 25.787109 4.617187 30.457031 C 4.098633 32.90918 5.337891 35.390625 7.605469 36.457031 C 10.025391 37.59668 12.916992 36.793945 14.402344 34.564453 L 18.958008 27.735352 Z M 29.044922 27.735352 " transform="matrix(1.333333,0,0,1.333333,0,0)"/>
<path style="fill:none;stroke-width:1;stroke-linecap:round;stroke-linejoin:round;stroke:rgb(0%,0%,0%);stroke-opacity:1;stroke-miterlimit:4;" d="M 30.814453 13.693359 L 30.814453 12.079102 C 30.814453 11.499023 31.283203 11.027344 31.866211 11.027344 L 35.633789 11.027344 C 36.216797 11.027344 36.685547 11.499023 36.685547 12.079102 L 36.685547 13.848633 " transform="matrix(1.333333,0,0,1.333333,0,0)"/>
<path style=" stroke:none;fill-rule:nonzero;fill:rgb(0%,0%,0%);fill-opacity:1;" d="M 42.375 27.976562 C 42.375 28.527344 41.925781 28.976562 41.375 28.976562 C 40.820312 28.976562 40.375 28.527344 40.375 27.976562 C 40.375 27.421875 40.820312 26.976562 41.375 26.976562 C 41.925781 26.976562 42.375 27.421875 42.375 27.976562 Z M 42.375 27.976562 "/>
<path style=" stroke:none;fill-rule:nonzero;fill:rgb(0%,0%,0%);fill-opacity:1;" d="M 49.617188 27.976562 C 49.617188 28.527344 49.171875 28.976562 48.617188 28.976562 C 48.066406 28.976562 47.617188 28.527344 47.617188 27.976562 C 47.617188 27.421875 48.066406 26.976562 48.617188 26.976562 C 49.171875 26.976562 49.617188 27.421875 49.617188 27.976562 Z M 49.617188 27.976562 "/>
<path style=" stroke:none;fill-rule:nonzero;fill:rgb(0%,0%,0%);fill-opacity:1;" d="M 46 24.355469 C 46 24.910156 45.550781 25.355469 45 25.355469 C 44.449219 25.355469 44 24.910156 44 24.355469 C 44 23.804688 44.449219 23.355469 45 23.355469 C 45.550781 23.355469 46 23.804688 46 24.355469 Z M 46 24.355469 "/>
<path style=" stroke:none;fill-rule:nonzero;fill:rgb(0%,0%,0%);fill-opacity:1;" d="M 46.046875 31.59375 C 46.046875 32.171875 45.578125 32.640625 45 32.640625 C 44.421875 32.640625 43.953125 32.171875 43.953125 31.59375 C 43.953125 31.015625 44.421875 30.546875 45 30.546875 C 45.578125 30.546875 46.046875 31.015625 46.046875 31.59375 Z M 46.046875 31.59375 "/>
</g>
</svg>
