<?xml version="1.0" standalone="no"?>
<!DOCTYPE svg PUBLIC "-//W3C//DTD SVG 20010904//EN"
 "http://www.w3.org/TR/2001/REC-SVG-20010904/DTD/svg10.dtd">
<svg version="1.0" xmlns="http://www.w3.org/2000/svg"
 width="64.000000pt" height="64.000000pt" viewBox="0 0 64.000000 64.000000"
 preserveAspectRatio="xMidYMid meet">
<metadata>
Created by potrace 1.10, written by Peter Selinger 2001-2011
</metadata>
<g transform="translate(0.000000,64.000000) scale(0.100000,-0.100000)"
fill="#000000" stroke="none">
<path d="M248 596 c-223 -61 -286 -332 -112 -485 151 -133 391 -62 449 132 19
64 19 100 -1 166 -40 135 -201 225 -336 187z m93 -20 c-10 -12 -7 -18 14 -32
14 -9 28 -14 32 -10 4 3 14 -1 24 -10 10 -9 36 -17 58 -18 37 -2 73 -16 40
-16 -11 0 -13 -12 -10 -51 2 -35 6 -47 12 -38 5 8 9 11 9 7 0 -17 3 -24 16
-43 30 -43 19 -66 -91 -175 -58 -58 -105 -110 -105 -117 0 -7 -4 -13 -10 -13
-5 0 -7 7 -4 15 5 11 2 13 -9 9 -20 -7 -237 208 -237 234 0 10 7 27 15 38 8
10 15 29 15 42 0 12 5 22 10 22 6 0 10 8 10 18 0 10 6 27 14 37 7 10 12 26 11
34 -1 9 0 10 2 3 5 -13 39 -8 57 9 6 5 18 9 28 9 21 0 69 28 81 47 4 7 13 13
19 13 7 0 6 -5 -1 -14z m-142 -434 c-11 -2 -28 0 -37 4 -9 4 -25 6 -36 5 -11
-2 -16 2 -11 8 3 6 11 8 17 5 8 -5 9 1 5 17 -4 13 -7 30 -7 37 0 10 -4 10 -20
0 -16 -10 -22 -10 -32 1 -11 11 -9 13 10 8 16 -4 22 -1 22 11 0 10 20 -4 55
-38 47 -47 52 -55 34 -58z m304 39 c3 -25 2 -39 -2 -32 -6 9 -11 10 -15 2 -4
-6 -22 -11 -40 -11 l-34 0 42 43 c22 23 42 42 42 42 1 0 4 -20 7 -44z"/>
<path d="M207 432 c-60 -60 -87 -95 -87 -111 0 -25 142 -180 148 -162 2 6 10
11 18 11 8 0 14 5 14 10 0 6 -5 10 -11 10 -7 0 -9 24 -7 70 2 39 0 70 -4 70
-5 0 -8 -36 -8 -80 0 -44 -3 -80 -7 -80 -4 0 -27 19 -50 42 -42 41 -43 44 -43
107 0 64 1 66 46 108 42 40 48 43 103 43 58 0 80 -12 106 -60 8 -13 7 -13 -8
-1 -10 8 -20 11 -23 8 -3 -3 4 -10 15 -17 12 -6 19 -15 15 -21 -4 -6 -11 -6
-20 2 -9 8 -14 8 -14 1 0 -6 8 -16 18 -21 14 -9 14 -10 2 -11 -9 0 -21 5 -28
12 -8 8 -12 8 -12 1 0 -16 28 -36 40 -28 6 4 15 18 21 32 16 43 34 21 34 -43
1 -56 -1 -61 -44 -107 -36 -37 -52 -47 -81 -48 -30 -2 -31 -3 -7 -6 35 -6 25
-23 -14 -23 -18 0 -28 -4 -24 -10 14 -23 45 -6 115 65 73 73 74 75 71 121 -2
31 1 44 8 40 6 -4 11 -22 11 -39 1 -26 2 -29 11 -15 15 26 -9 62 -94 146 -50
48 -82 72 -99 72 -16 0 -50 -26 -111 -88z m148 58 c4 -6 -10 -10 -34 -10 -23
0 -41 5 -41 10 0 6 15 10 34 10 19 0 38 -4 41 -10z m-195 -176 c0 -44 -13 -53
-22 -16 -5 18 7 62 17 62 3 0 5 -21 5 -46z"/>
<path d="M205 482 c-31 -28 -61 -62 -53 -62 2 0 24 20 48 45 49 50 52 59 5 17z"/>
<path d="M420 477 c0 -2 14 -16 31 -33 30 -28 31 -28 19 -4 -7 14 -18 28 -24
32 -11 8 -26 10 -26 5z"/>
<path d="M218 401 c-8 -12 -18 -18 -23 -13 -4 4 0 -8 9 -25 19 -37 23 -39 62
-18 16 8 38 15 49 16 20 0 20 0 0 8 -22 9 -46 3 -57 -13 -5 -8 -11 -7 -20 2
-9 9 -9 12 0 12 7 0 12 5 12 12 0 6 -9 3 -20 -7 -24 -22 -27 -4 -4 20 9 9 14
18 11 21 -3 3 -11 -4 -19 -15z"/>
<path d="M260 404 c0 -7 5 -16 10 -19 6 -3 10 -1 10 5 0 6 7 10 16 8 10 -2 19
2 21 8 2 6 -9 11 -27 11 -18 0 -30 -6 -30 -13z"/>
<path d="M358 295 c6 -31 -13 -55 -44 -55 -19 0 -24 -5 -23 -22 1 -17 2 -19 6
-5 3 10 14 17 27 17 12 0 27 5 34 12 14 14 16 64 3 72 -4 3 -6 -6 -3 -19z"/>
<path d="M290 286 c0 -14 4 -27 9 -30 4 -3 6 6 3 19 -5 30 21 35 38 8 10 -16
10 -16 8 2 -2 13 -12 21 -31 23 -23 3 -27 0 -27 -22z"/>
</g>
</svg>
