<?xml version="1.0" encoding="UTF-8"?>
<svg xmlns="http://www.w3.org/2000/svg" xmlns:xlink="http://www.w3.org/1999/xlink" width="64px" height="64px" viewBox="0 0 64 64" version="1.1">
<g id="surface1">
<path style="fill:none;stroke-width:2;stroke-linecap:round;stroke-linejoin:round;stroke:rgb(0%,0%,0%);stroke-opacity:1;stroke-miterlimit:4;" d="M 13.999512 13.999512 L 16.999512 13.999512 M 13.999512 10.000488 L 16.999512 10.000488 M 9 9.499512 L 9 8.500488 M 9 9.499512 L 10.999512 9.499512 M 9 9.499512 C 7.201172 9.499512 7.001953 9.931641 7.000488 10.83252 C 6.999023 11.733398 7.000488 12 9 12 C 10.999512 12 10.999512 12.205078 10.999512 13.166016 C 10.999512 13.889648 10.999512 14.500488 9 14.500488 M 9 14.500488 L 9 15.499512 M 9 14.500488 L 7.000488 14.500488 M 6.200684 19.000488 L 17.799316 19.000488 C 18.919922 19.000488 19.479492 19.000488 19.908691 18.782227 C 20.283691 18.590332 20.589844 18.28418 20.781738 17.907715 C 21 17.47998 21 16.92041 21 15.799805 L 21 8.200195 C 21 7.07959 21 6.52002 20.781738 6.092285 C 20.589844 5.71582 20.283691 5.409668 19.908691 5.217773 C 19.479492 4.999512 18.919922 4.999512 17.799316 4.999512 L 6.200684 4.999512 C 5.080078 4.999512 4.520508 4.999512 4.091309 5.217773 C 3.716309 5.409668 3.410156 5.71582 3.218262 6.092285 C 3 6.52002 3 7.07959 3 8.200195 L 3 15.799805 C 3 16.92041 3 17.47998 3.218262 17.907715 C 3.410156 18.28418 3.716309 18.590332 4.091309 18.782227 C 4.520508 19.000488 5.080078 19.000488 6.200684 19.000488 Z M 6.200684 19.000488 " transform="matrix(2.666667,0,0,2.666667,0,0)"/>
</g>
</svg>
