<?xml version="1.0" encoding="UTF-8"?>
<svg xmlns="http://www.w3.org/2000/svg" xmlns:xlink="http://www.w3.org/1999/xlink" width="24px" height="25px" viewBox="0 0 24 24" version="1.1">
<g id="surface1">
<path style=" stroke:none;fill-rule:nonzero;fill:rgb(0%,0%,0%);fill-opacity:1;" d="M 4.019531 0.046875 C 4.042969 0.0703125 4.015625 0.207031 3.953125 0.351562 C 3.703125 0.929688 3.847656 1.363281 4.695312 2.597656 C 5.128906 3.226562 5.191406 3.480469 4.921875 3.480469 C 4.5 3.480469 3.113281 4.390625 2.5625 5.03125 C 0.625 7.285156 1.089844 10.550781 3.605469 12.332031 C 4.070312 12.667969 4.078125 12.722656 3.730469 13.203125 C 2.769531 14.511719 2.714844 15.148438 3.507812 15.953125 C 4.023438 16.476562 3.976562 16.46875 6.628906 16.46875 L 9.023438 16.46875 L 9.402344 16.214844 C 9.691406 16.023438 10.027344 15.628906 10.738281 14.648438 C 11.261719 13.929688 11.777344 13.253906 11.882812 13.144531 L 12.078125 12.953125 L 12.269531 13.144531 C 12.371094 13.253906 12.738281 13.734375 13.085938 14.226562 C 14.035156 15.582031 14.390625 16 14.789062 16.246094 L 15.152344 16.46875 L 17.621094 16.46875 C 20.324219 16.46875 20.304688 16.472656 20.773438 15.992188 C 21.523438 15.21875 21.523438 14.601562 20.765625 13.515625 C 20.40625 13 20.40625 12.984375 20.820312 12.675781 C 22.125 11.703125 22.71875 10 22.238281 8.609375 C 22.144531 8.328125 22.148438 8.238281 22.265625 7.886719 C 22.882812 6.035156 21.207031 3.480469 19.375 3.480469 C 19.054688 3.480469 19.089844 3.269531 19.507812 2.71875 C 20.355469 1.585938 20.535156 1.050781 20.316406 0.289062 L 20.230469 0 L 16.777344 0 L 13.320312 0.00390625 L 13.109375 0.367188 C 12.800781 0.910156 12.175781 1.699219 12.058594 1.699219 C 11.9375 1.699219 11.128906 0.644531 10.960938 0.269531 L 10.839844 0 L 7.40625 0 C 5.519531 0 3.996094 0.0195312 4.019531 0.046875 Z M 9.863281 0.246094 C 9.980469 0.367188 10.753906 1.425781 11.320312 2.242188 C 11.539062 2.5625 11.738281 2.835938 11.761719 2.859375 C 11.785156 2.878906 11.871094 3 11.953125 3.125 L 12.101562 3.351562 L 12.222656 3.125 C 12.289062 3 12.363281 2.878906 12.390625 2.859375 C 12.421875 2.835938 12.476562 2.765625 12.519531 2.691406 C 12.644531 2.484375 13.382812 1.433594 13.4375 1.390625 C 13.460938 1.367188 13.625 1.144531 13.796875 0.890625 C 14.351562 0.078125 14.070312 0.148438 16.8125 0.148438 C 19.511719 0.148438 19.53125 0.152344 19.648438 0.738281 C 19.699219 1.011719 19.496094 1.53125 19.308594 1.601562 C 19.246094 1.625 19.199219 1.671875 19.199219 1.707031 C 19.199219 1.792969 18.628906 2.578125 18.539062 2.617188 C 18.507812 2.628906 18.480469 2.691406 18.480469 2.753906 C 18.480469 2.8125 18.453125 2.859375 18.421875 2.859375 C 18.382812 2.859375 18.269531 3 18.160156 3.171875 C 18.050781 3.339844 17.9375 3.480469 17.898438 3.480469 C 17.867188 3.480469 17.839844 3.523438 17.839844 3.578125 C 17.839844 3.875 17.375 4.175781 16.925781 4.175781 C 16.375 4.175781 16.367188 4.234375 17.039062 3.335938 C 17.347656 2.925781 17.652344 2.519531 17.710938 2.4375 C 17.777344 2.351562 18.03125 2.003906 18.285156 1.667969 C 18.851562 0.894531 18.886719 0.808594 18.632812 0.878906 C 18.527344 0.90625 17.597656 0.929688 16.558594 0.929688 L 14.679688 0.933594 L 13.398438 2.785156 C 12.695312 3.804688 12.097656 4.640625 12.066406 4.640625 C 12.039062 4.640625 11.800781 4.316406 11.53125 3.925781 C 11.269531 3.53125 10.695312 2.703125 10.261719 2.085938 L 9.472656 0.964844 L 7.515625 0.929688 C 6.441406 0.90625 5.542969 0.898438 5.527344 0.910156 C 5.511719 0.917969 5.640625 1.125 5.8125 1.371094 C 6.910156 2.914062 7.261719 3.398438 7.472656 3.691406 C 7.757812 4.082031 7.761719 4.074219 7.175781 4.035156 C 6.730469 4.007812 6.695312 3.988281 6.476562 3.683594 C 6.347656 3.507812 6.214844 3.328125 6.179688 3.285156 C 6.148438 3.242188 5.945312 2.945312 5.722656 2.628906 C 5.507812 2.308594 5.308594 2.03125 5.285156 2.011719 C 4.707031 1.511719 4.527344 0.65625 4.929688 0.316406 L 5.160156 0.117188 L 7.460938 0.132812 C 9.234375 0.144531 9.785156 0.171875 9.863281 0.246094 Z M 9.066406 2.015625 C 9.179688 2.097656 9.683594 2.753906 10.1875 3.464844 C 11.992188 6.019531 12.160156 6.015625 13.988281 3.402344 C 15.074219 1.847656 15.058594 1.859375 16.097656 1.855469 C 17.046875 1.855469 17.050781 1.863281 16.554688 2.574219 C 16.023438 3.335938 15.941406 3.398438 15.386719 3.476562 C 14.042969 3.664062 13.179688 4.980469 13.691406 6.0625 C 13.769531 6.226562 13.746094 6.332031 13.570312 6.730469 C 13.257812 7.429688 13.320312 7.652344 14.160156 8.777344 C 14.742188 9.558594 14.746094 9.445312 14.125 10.070312 C 13.5625 10.640625 13.496094 10.652344 13.203125 10.238281 C 12.996094 9.941406 12.457031 9.492188 12.210938 9.40625 C 11.96875 9.320312 11.539062 9.578125 11.042969 10.109375 C 10.550781 10.640625 10.453125 10.667969 10.371094 10.289062 C 10.34375 10.15625 10.179688 9.902344 10.003906 9.714844 C 9.605469 9.296875 9.605469 9.3125 10.03125 8.722656 C 10.773438 7.6875 10.871094 7.261719 10.519531 6.660156 C 10.335938 6.351562 10.320312 6.246094 10.320312 5.363281 C 10.320312 4.25 10.253906 4.03125 9.773438 3.613281 C 9.414062 3.300781 9.421875 3.304688 8.878906 3.320312 C 8.679688 3.328125 8.425781 3.300781 8.316406 3.257812 C 8.09375 3.179688 7.253906 2.042969 7.324219 1.925781 C 7.425781 1.769531 8.84375 1.84375 9.066406 2.015625 Z M 9.519531 5.175781 L 9.519531 6.175781 L 7.578125 6.199219 C 5.402344 6.226562 5.386719 6.230469 4.804688 6.820312 C 4.386719 7.238281 4.296875 7.214844 6.28125 7.199219 L 8.003906 7.179688 L 7.984375 8.171875 L 7.960938 9.164062 L 6.261719 9.183594 C 5.324219 9.191406 4.558594 9.226562 4.558594 9.257812 C 4.5625 9.359375 4.832031 9.632812 5.121094 9.835938 C 5.632812 10.1875 6.003906 10.234375 7.882812 10.175781 L 9.601562 10.117188 L 9.601562 12.140625 L 7.535156 12.140625 C 4.632812 12.140625 4.148438 11.972656 2.953125 10.539062 C 1.601562 8.921875 2.160156 5.980469 4.039062 4.832031 C 4.910156 4.300781 5.332031 4.242188 8.699219 4.1875 L 9.519531 4.175781 Z M 19.675781 4.457031 C 21.382812 4.917969 22.164062 6.867188 21.183594 8.210938 C 21.105469 8.316406 21.117188 8.371094 21.230469 8.496094 C 21.929688 9.238281 21.65625 10.796875 20.679688 11.664062 C 19.992188 12.265625 19.851562 12.292969 17.242188 12.292969 C 14.394531 12.292969 14.285156 12.242188 14.421875 11.082031 C 14.5 10.402344 14.484375 10.410156 17.0625 10.320312 C 19.550781 10.238281 19.519531 10.246094 19.519531 9.824219 C 19.519531 9.367188 19.402344 9.320312 18.207031 9.292969 C 16.6875 9.257812 16.453125 9.121094 16.453125 8.242188 C 16.453125 7.464844 16.675781 7.34375 18.132812 7.34375 C 19.425781 7.34375 19.519531 7.308594 19.519531 6.800781 C 19.519531 6.351562 19.460938 6.339844 17.203125 6.339844 C 14.632812 6.339844 14.398438 6.257812 14.398438 5.378906 C 14.402344 4.882812 14.53125 4.632812 14.867188 4.480469 C 15.257812 4.304688 19.039062 4.289062 19.675781 4.457031 Z M 9.722656 6.863281 L 10.046875 7.304688 L 9.410156 8.195312 C 8.179688 9.917969 8.214844 9.878906 7.707031 9.910156 C 7.203125 9.9375 7.175781 9.929688 7.285156 9.738281 C 7.425781 9.484375 7.609375 9.355469 7.839844 9.355469 C 8.128906 9.355469 8.195312 9.253906 8.203125 8.804688 C 8.210938 8.523438 8.269531 8.375 8.46875 8.132812 C 8.605469 7.964844 8.71875 7.785156 8.71875 7.738281 C 8.71875 7.691406 8.753906 7.65625 8.789062 7.65625 C 8.972656 7.65625 9.03125 7.277344 8.875 7.085938 C 8.792969 6.980469 8.71875 6.863281 8.71875 6.820312 C 8.71875 6.78125 8.667969 6.703125 8.601562 6.648438 C 8.382812 6.476562 8.472656 6.417969 8.941406 6.421875 L 9.398438 6.421875 Z M 15.199219 6.550781 C 15.617188 6.621094 15.621094 6.632812 15.359375 6.984375 L 15.109375 7.324219 L 15.699219 8.085938 C 16.023438 8.507812 16.359375 8.964844 16.445312 9.105469 C 16.527344 9.242188 16.625 9.355469 16.65625 9.355469 C 16.691406 9.355469 16.71875 9.390625 16.71875 9.429688 C 16.71875 9.46875 16.8125 9.59375 16.921875 9.710938 C 17.207031 10.011719 17.175781 10.050781 16.648438 10.050781 L 16.175781 10.050781 L 15.167969 8.71875 C 14.613281 7.984375 14.160156 7.347656 14.160156 7.308594 C 14.164062 7.121094 14.765625 6.421875 14.878906 6.46875 C 14.949219 6.496094 15.09375 6.53125 15.199219 6.550781 Z M 12.492188 10.613281 C 12.886719 11.199219 13.347656 11.847656 14.515625 13.453125 C 14.898438 13.984375 15.277344 14.515625 15.347656 14.632812 L 15.480469 14.84375 L 17.621094 14.84375 C 18.796875 14.84375 19.761719 14.824219 19.761719 14.800781 C 19.761719 14.777344 19.636719 14.609375 19.488281 14.433594 C 19.339844 14.257812 18.945312 13.753906 18.609375 13.316406 L 18 12.527344 L 19.027344 12.527344 L 19.453125 13.085938 C 20.683594 14.703125 20.769531 14.898438 20.390625 15.316406 L 20.226562 15.503906 L 17.703125 15.527344 C 14.789062 15.554688 15.101562 15.632812 14.410156 14.65625 C 14.199219 14.355469 13.765625 13.742188 13.441406 13.300781 C 13.121094 12.851562 12.695312 12.257812 12.496094 11.984375 C 12.300781 11.707031 12.109375 11.480469 12.070312 11.480469 C 12.015625 11.480469 11.4375 12.269531 9.878906 14.457031 C 9.625 14.816406 9.324219 15.210938 9.210938 15.328125 L 9.011719 15.542969 L 6.644531 15.542969 C 3.054688 15.542969 3.042969 15.519531 5.074219 12.742188 L 5.394531 12.308594 L 5.835938 12.351562 C 6.078125 12.375 6.292969 12.402344 6.304688 12.414062 C 6.328125 12.433594 5.21875 13.941406 4.792969 14.472656 C 4.664062 14.628906 4.558594 14.78125 4.558594 14.804688 C 4.558594 14.910156 8.703125 14.84375 8.746094 14.734375 C 8.773438 14.675781 9.164062 14.105469 9.625 13.476562 C 10.964844 11.632812 11.4375 10.96875 11.746094 10.496094 C 12.105469 9.953125 12.042969 9.941406 12.492188 10.613281 Z M 8.71875 13.230469 C 8.71875 13.28125 8.578125 13.453125 8.40625 13.617188 L 8.101562 13.917969 L 7.246094 13.917969 C 6.277344 13.917969 6.199219 13.851562 6.65625 13.398438 L 6.910156 13.144531 L 7.816406 13.144531 C 8.429688 13.144531 8.71875 13.171875 8.71875 13.230469 Z M 17.628906 13.457031 C 18.117188 13.828125 17.945312 13.933594 16.871094 13.90625 C 15.890625 13.878906 15.519531 13.730469 15.519531 13.371094 C 15.519531 13.210938 17.398438 13.289062 17.628906 13.457031 Z M 17.628906 13.457031 "/>
<path style=" stroke:none;fill-rule:nonzero;fill:rgb(0%,0%,0%);fill-opacity:1;" d="M 19.144531 17.679688 C 18.613281 17.859375 18.125 18.335938 17.78125 19 L 17.480469 19.59375 L 17.457031 20.984375 C 17.429688 22.484375 17.476562 22.808594 17.824219 23.429688 C 18.136719 23.980469 18.117188 23.96875 18.867188 23.960938 C 19.492188 23.957031 19.535156 23.949219 19.304688 23.863281 C 18.679688 23.644531 18.308594 23.011719 18.164062 21.90625 C 17.816406 19.296875 19.175781 17.527344 20.53125 18.828125 C 21.707031 19.949219 21.328125 23.453125 19.984375 23.871094 C 19.753906 23.941406 19.808594 23.953125 20.421875 23.960938 L 21.117188 23.96875 L 21.324219 23.664062 C 22.933594 21.316406 21.335938 16.929688 19.144531 17.679688 Z M 19.144531 17.679688 "/>
<path style=" stroke:none;fill-rule:nonzero;fill:rgb(0%,0%,0%);fill-opacity:1;" d="M 3.363281 17.679688 C 3.09375 17.738281 2.671875 18.0625 2.480469 18.359375 C 2.296875 18.648438 2.226562 23.5 2.402344 23.816406 C 2.480469 23.957031 2.578125 23.96875 3.644531 23.96875 L 4.804688 23.96875 L 4.878906 23.773438 C 4.925781 23.660156 4.960938 23.4375 4.960938 23.273438 C 4.960938 23.003906 4.988281 22.957031 5.253906 22.835938 C 7.066406 22.003906 7.078125 18.75 5.273438 17.855469 C 4.960938 17.703125 3.785156 17.59375 3.363281 17.679688 Z M 5.121094 18.644531 C 6.472656 19.441406 6.03125 22.113281 4.546875 22.113281 L 4.160156 22.113281 L 4.160156 23.898438 L 3.160156 23.851562 L 3.140625 21.167969 L 3.117188 18.480469 L 3.980469 18.480469 C 4.714844 18.480469 4.878906 18.503906 5.121094 18.644531 Z M 5.121094 18.644531 "/>
<path style=" stroke:none;fill-rule:nonzero;fill:rgb(0%,0%,0%);fill-opacity:1;" d="M 3.359375 21.148438 L 3.359375 23.582031 L 3.921875 23.582031 L 3.921875 21.804688 L 4.472656 21.804688 C 5.328125 21.804688 5.746094 21.214844 5.660156 20.140625 C 5.570312 19.085938 5.15625 18.710938 4.066406 18.710938 L 3.359375 18.710938 Z M 4.824219 19.566406 C 5.492188 20.066406 5.085938 21.1875 4.234375 21.1875 L 3.921875 21.1875 L 3.921875 19.40625 L 4.269531 19.40625 C 4.5 19.40625 4.6875 19.460938 4.824219 19.566406 Z M 4.824219 19.566406 "/>
<path style=" stroke:none;fill-rule:nonzero;fill:rgb(0%,0%,0%);fill-opacity:1;" d="M 4.160156 20.296875 L 4.160156 20.875 L 4.433594 20.875 C 4.796875 20.875 4.945312 20.523438 4.792969 20.03125 C 4.703125 19.742188 4.671875 19.714844 4.429688 19.714844 L 4.160156 19.714844 Z M 4.160156 20.296875 "/>
<path style=" stroke:none;fill-rule:nonzero;fill:rgb(0%,0%,0%);fill-opacity:1;" d="M 10.960938 17.679688 C 10.6875 17.734375 10.261719 18.0625 10.070312 18.351562 C 9.921875 18.59375 9.828125 23.488281 9.96875 23.84375 C 10.011719 23.953125 10.277344 23.96875 12.128906 23.96875 L 14.234375 23.96875 L 14.28125 23.796875 C 14.308594 23.699219 14.214844 23.257812 14.085938 22.808594 C 13.796875 21.847656 13.792969 21.804688 14 21.28125 C 14.835938 19.160156 13.203125 17.226562 10.960938 17.679688 Z M 12.609375 18.5625 C 13.523438 18.898438 13.761719 20.601562 13.023438 21.585938 C 12.933594 21.710938 13.167969 22.597656 13.527344 23.488281 C 13.675781 23.855469 13.636719 23.890625 13.050781 23.890625 L 12.503906 23.890625 L 12.222656 22.988281 C 11.847656 21.78125 11.761719 21.777344 11.761719 22.957031 L 11.761719 23.890625 L 10.71875 23.890625 L 10.71875 18.480469 L 11.554688 18.480469 C 12.011719 18.480469 12.488281 18.515625 12.609375 18.5625 Z M 12.609375 18.5625 "/>
<path style=" stroke:none;fill-rule:nonzero;fill:rgb(0%,0%,0%);fill-opacity:1;" d="M 10.960938 21.148438 L 10.960938 23.582031 L 11.535156 23.582031 L 11.507812 22.691406 L 11.480469 21.804688 L 12.136719 21.804688 L 12.402344 22.691406 L 12.671875 23.582031 L 13.269531 23.582031 L 13.089844 23.023438 C 12.988281 22.710938 12.839844 22.261719 12.761719 22.015625 C 12.613281 21.574219 12.613281 21.570312 12.777344 21.398438 C 13.085938 21.070312 13.152344 20.851562 13.152344 20.179688 C 13.148438 19.03125 12.828125 18.710938 11.660156 18.710938 L 10.960938 18.710938 Z M 12.464844 19.59375 C 12.5625 19.6875 12.601562 19.859375 12.601562 20.25 C 12.601562 20.933594 12.515625 21.03125 11.933594 21.03125 L 11.480469 21.03125 L 11.496094 20.238281 C 11.503906 19.800781 11.511719 19.433594 11.515625 19.414062 C 11.527344 19.328125 12.351562 19.480469 12.464844 19.59375 Z M 12.464844 19.59375 "/>
<path style=" stroke:none;fill-rule:nonzero;fill:rgb(0%,0%,0%);fill-opacity:1;" d="M 11.761719 20.257812 L 11.761719 20.800781 L 11.996094 20.800781 C 12.273438 20.800781 12.398438 20.625 12.398438 20.257812 C 12.398438 19.890625 12.273438 19.714844 11.996094 19.714844 L 11.761719 19.714844 Z M 11.761719 20.257812 "/>
<path style=" stroke:none;fill-rule:nonzero;fill:rgb(0%,0%,0%);fill-opacity:1;" d="M 18.984375 18.960938 C 17.605469 20.371094 18.503906 24.347656 20.023438 23.570312 C 21.085938 23.03125 21.277344 19.984375 20.3125 19.003906 C 19.910156 18.59375 19.359375 18.578125 18.984375 18.960938 Z M 19.957031 19.53125 C 20.589844 20.140625 20.445312 22.851562 19.777344 22.894531 C 19.179688 22.9375 18.882812 22.363281 18.878906 21.183594 C 18.878906 19.839844 19.421875 19.007812 19.957031 19.53125 Z M 19.957031 19.53125 "/>
<path style=" stroke:none;fill-rule:nonzero;fill:rgb(0%,0%,0%);fill-opacity:1;" d="M 19.476562 19.695312 C 19.191406 19.890625 19.09375 21.628906 19.328125 22.292969 C 19.542969 22.910156 19.90625 22.789062 20.070312 22.050781 C 20.34375 20.804688 19.980469 19.355469 19.476562 19.695312 Z M 19.476562 19.695312 "/>
</g>
</svg>
