<?xml version="1.0" encoding="UTF-8"?>
<svg xmlns="http://www.w3.org/2000/svg" xmlns:xlink="http://www.w3.org/1999/xlink" width="64px" height="64px" viewBox="0 0 64 64" version="1.1">
<g id="surface1">
<path style="fill:none;stroke-width:1.5;stroke-linecap:butt;stroke-linejoin:miter;stroke:rgb(10.980392%,15.294118%,29.803922%);stroke-opacity:1;stroke-miterlimit:4;" d="M 19.561523 7.000488 C 19.790039 5.695312 18.786621 4.5 17.462402 4.5 L 6.537598 4.5 C 5.213379 4.5 4.208496 5.695312 4.438477 7.000488 " transform="matrix(2.666667,0,0,2.666667,0,0)"/>
<path style="fill:none;stroke-width:1.5;stroke-linecap:butt;stroke-linejoin:miter;stroke:rgb(10.980392%,15.294118%,29.803922%);stroke-opacity:1;stroke-miterlimit:4;" d="M 17.500488 4.5 C 17.52832 4.240723 17.542969 4.111816 17.542969 4.004883 C 17.544434 2.980957 16.773926 2.121094 15.755859 2.01123 C 15.650391 1.999512 15.52002 1.999512 15.259277 1.999512 L 8.740723 1.999512 C 8.47998 1.999512 8.349609 1.999512 8.244141 2.01123 C 7.226074 2.121094 6.454102 2.980957 6.457031 4.004883 C 6.457031 4.111816 6.47168 4.240723 6.499512 4.5 " transform="matrix(2.666667,0,0,2.666667,0,0)"/>
<path style="fill:none;stroke-width:1.5;stroke-linecap:round;stroke-linejoin:miter;stroke:rgb(10.980392%,15.294118%,29.803922%);stroke-opacity:1;stroke-miterlimit:4;" d="M 21.193359 16.792969 C 20.843262 19.274414 20.668945 20.513672 19.770996 21.257812 C 18.874512 22.000488 17.551758 22.000488 14.904785 22.000488 L 9.095215 22.000488 C 6.448242 22.000488 5.125488 22.000488 4.229004 21.257812 C 3.331055 20.513672 3.156738 19.274414 2.806641 16.792969 L 2.383301 13.792969 C 1.937988 10.628906 1.713867 9.04834 2.661621 8.024414 C 3.61084 7.000488 5.296875 7.000488 8.671875 7.000488 L 15.328125 7.000488 C 18.703125 7.000488 20.38916 7.000488 21.338379 8.024414 C 22.086914 8.833008 22.104492 9.990234 21.859863 12 " transform="matrix(2.666667,0,0,2.666667,0,0)"/>
<path style="fill:none;stroke-width:1.5;stroke-linecap:butt;stroke-linejoin:miter;stroke:rgb(10.980392%,15.294118%,29.803922%);stroke-opacity:1;stroke-miterlimit:4;" d="M 14.581055 13.615723 C 15.13916 13.961426 15.13916 14.85791 14.581055 15.205078 L 11.208984 17.293945 C 10.666992 17.630859 10.000488 17.192871 10.000488 16.5 L 10.000488 12.319336 C 10.000488 11.62793 10.666992 11.189941 11.208984 11.525391 Z M 14.581055 13.615723 " transform="matrix(2.666667,0,0,2.666667,0,0)"/>
</g>
</svg>
