<?xml version="1.0" encoding="UTF-8"?>
<svg xmlns="http://www.w3.org/2000/svg" xmlns:xlink="http://www.w3.org/1999/xlink" width="64px" height="64px" viewBox="0 0 64 64" version="1.1">
<g id="surface1">
<path style="fill:none;stroke-width:2;stroke-linecap:round;stroke-linejoin:round;stroke:rgb(0%,0%,0%);stroke-opacity:1;stroke-miterlimit:4;" d="M 11.269043 4.410645 C 11.500488 3.89209 11.616211 3.631348 11.777344 3.552246 C 11.917969 3.481934 12.082031 3.481934 12.222656 3.552246 C 12.383789 3.631348 12.499512 3.89209 12.730957 4.410645 L 14.575195 8.547363 C 14.642578 8.701172 14.677734 8.778809 14.730469 8.837402 C 14.777344 8.888672 14.834473 8.931152 14.898926 8.958984 C 14.970703 8.991211 15.054199 9 15.221191 9.017578 L 19.725586 9.493652 C 20.291016 9.553711 20.57373 9.583008 20.699707 9.711914 C 20.80957 9.823242 20.859375 9.97998 20.837402 10.133789 C 20.811035 10.3125 20.600098 10.50293 20.176758 10.883789 L 16.812012 13.916016 C 16.6875 14.027344 16.624512 14.084473 16.586426 14.15332 C 16.55127 14.213379 16.529297 14.280762 16.521973 14.349609 C 16.513184 14.428711 16.530762 14.510742 16.565918 14.67627 L 17.504883 19.105957 C 17.623535 19.662598 17.682129 19.940918 17.598633 20.100586 C 17.526855 20.238281 17.393555 20.334961 17.239746 20.361328 C 17.0625 20.39209 16.814941 20.25 16.322754 19.96582 L 12.399902 17.702637 C 12.253418 17.617676 12.181641 17.57666 12.104004 17.560547 C 12.035156 17.545898 11.964844 17.545898 11.895996 17.560547 C 11.818359 17.57666 11.745117 17.617676 11.600098 17.702637 L 7.677246 19.96582 C 7.183594 20.25 6.9375 20.39209 6.760254 20.361328 C 6.606445 20.334961 6.473145 20.238281 6.401367 20.100586 C 6.317871 19.940918 6.376465 19.662598 6.493652 19.105957 L 7.434082 14.67627 C 7.469238 14.510742 7.486816 14.428711 7.478027 14.349609 C 7.470703 14.280762 7.44873 14.213379 7.413574 14.15332 C 7.374023 14.084473 7.3125 14.027344 7.186523 13.916016 L 3.821777 10.883789 C 3.399902 10.50293 3.188965 10.3125 3.162598 10.133789 C 3.13916 9.97998 3.19043 9.823242 3.300293 9.711914 C 3.42627 9.583008 3.708984 9.553711 4.274414 9.493652 L 8.778809 9.017578 C 8.945801 9 9.029297 8.991211 9.101074 8.958984 C 9.165527 8.931152 9.222656 8.888672 9.269531 8.837402 C 9.322266 8.778809 9.355957 8.701172 9.424805 8.547363 Z M 11.269043 4.410645 " transform="matrix(2.666667,0,0,2.666667,0,0)"/>
</g>
</svg>
