<svg width="24" height="24" viewBox="0 0 24 24" fill="none" xmlns="http://www.w3.org/2000/svg">
<g id="Frame" clip-path="url(#clip0_117_160)">
<path id="Vector" d="M4 21V8C4 7.20435 4.31607 6.44129 4.87868 5.87868C5.44129 5.31607 6.20435 5 7 5H17C17.7956 5 18.5587 5.31607 19.1213 5.87868C19.6839 6.44129 20 7.20435 20 8V14C20 14.7956 19.6839 15.5587 19.1213 16.1213C18.5587 16.6839 17.7956 17 17 17H8L4 21Z" stroke="#02050A" stroke-width="2" stroke-linecap="round" stroke-linejoin="round"/>
<path id="Vector_2" d="M9.5 9H9.51" stroke="#02050A" stroke-width="2" stroke-linecap="round" stroke-linejoin="round"/>
<path id="Vector_3" d="M14.5 9H14.51" stroke="#02050A" stroke-width="2" stroke-linecap="round" stroke-linejoin="round"/>
<path id="Vector_4" d="M9.5 13C9.82588 13.3326 10.2148 13.5968 10.6441 13.7772C11.0734 13.9576 11.5344 14.0505 12 14.0505C12.4656 14.0505 12.9266 13.9576 13.3559 13.7772C13.7852 13.5968 14.1741 13.3326 14.5 13" stroke="#02050A" stroke-width="2" stroke-linecap="round" stroke-linejoin="round"/>
</g>
<defs>
<clipPath id="clip0_117_160">
<rect width="24" height="24" fill="white"/>
</clipPath>
</defs>
</svg>
