<?xml version="1.0" encoding="UTF-8"?>
<svg xmlns="http://www.w3.org/2000/svg" xmlns:xlink="http://www.w3.org/1999/xlink" width="64px" height="64px" viewBox="0 0 64 64" version="1.1">
<g id="surface1">
<path style="fill:none;stroke-width:2;stroke-linecap:butt;stroke-linejoin:round;stroke:rgb(0%,0%,0%);stroke-opacity:1;stroke-miterlimit:4;" d="M 21 12.498047 L 13.999512 12.498047 M 3 12.498047 L 10.000488 12.498047 M 7.000488 4.5 L 7.000488 19.498535 M 16.999512 4.5 L 16.999512 19.498535 M 6.200684 19.5 L 17.799316 19.5 C 18.919922 19.5 19.479492 19.5 19.908691 19.281738 C 20.283691 19.089844 20.589844 18.783691 20.781738 18.408691 C 21 17.979492 21 17.419922 21 16.299316 L 21 10.899902 C 21 8.660156 21 7.539551 20.563477 6.684082 C 20.181152 5.931152 19.568848 5.318848 18.815918 4.936523 C 17.960449 4.5 16.839844 4.5 14.600098 4.5 L 9.399902 4.5 C 7.160156 4.5 6.039551 4.5 5.184082 4.936523 C 4.431152 5.318848 3.818848 5.931152 3.436523 6.684082 C 3 7.539551 3 8.660156 3 10.899902 L 3 16.299316 C 3 17.419922 3 17.979492 3.218262 18.408691 C 3.410156 18.783691 3.716309 19.089844 4.091309 19.281738 C 4.520508 19.5 5.080078 19.5 6.200684 19.5 Z M 10.000488 10.498535 L 13.999512 10.498535 L 13.999512 14.499023 L 10.000488 14.499023 Z M 10.000488 10.498535 " transform="matrix(2.666667,0,0,2.666667,0,0)"/>
</g>
</svg>
